<svg id="amazon-a-logo-icon" xmlns="http://www.w3.org/2000/svg" width="21.283" height="19.349" viewBox="0 0 21.283 19.349">
  <path id="Path_9274" data-name="Path 9274" d="M33.848,9.5a3.9,3.9,0,0,1,.658-2.283,4.06,4.06,0,0,1,1.8-1.432,9.741,9.741,0,0,1,2.573-.639q.522-.058,1.7-.155V4.663A3.445,3.445,0,0,0,40.31,3a1.45,1.45,0,0,0-1.277-.58h-.155a2.117,2.117,0,0,0-1.1.406,1.586,1.586,0,0,0-.6.968.491.491,0,0,1-.387.445l-2.225-.271q-.329-.077-.329-.348a.57.57,0,0,1,.019-.135A3.709,3.709,0,0,1,35.87.929,6.068,6.068,0,0,1,38.879,0h.484a4.891,4.891,0,0,1,3.444,1.142,3.7,3.7,0,0,1,.358.416,3.749,3.749,0,0,1,.261.4,2.019,2.019,0,0,1,.174.5c.052.219.09.371.116.455a2.775,2.775,0,0,1,.058.542q.019.416.019.493V8.629a2.773,2.773,0,0,0,.145.919,2.408,2.408,0,0,0,.28.6q.135.184.445.59a.581.581,0,0,1,.116.31.334.334,0,0,1-.155.271l-1.741,1.509a.539.539,0,0,1-.561.039q-.27-.233-.474-.445t-.29-.31a4.3,4.3,0,0,1-.28-.377c-.129-.187-.22-.313-.271-.377a4.75,4.75,0,0,1-2.128,1.471,5.848,5.848,0,0,1-1.625.193,3.39,3.39,0,0,1-2.448-.919,3.437,3.437,0,0,1-.958-2.6Zm3.328-.387a1.834,1.834,0,0,0,.377,1.209,1.252,1.252,0,0,0,1.016.455,1,1,0,0,0,.165-.019.956.956,0,0,1,.145-.02,1.965,1.965,0,0,0,1.257-1.045,3.025,3.025,0,0,0,.319-.8,3.664,3.664,0,0,0,.116-.706q.01-.271.01-.89V6.811a7.045,7.045,0,0,0-1.7.155,2.074,2.074,0,0,0-1.7,2.148Z" transform="translate(-27.985)"/>
  <path id="Path_9275" data-name="Path 9275" d="M17.317,84.675a.609.609,0,0,1,.116-.155,3.034,3.034,0,0,1,.929-.445,6.321,6.321,0,0,1,1.432-.213,1.153,1.153,0,0,1,.368.019q.871.077,1.045.29a.635.635,0,0,1,.077.348v.136a4.413,4.413,0,0,1-.367,1.6,3.718,3.718,0,0,1-1.026,1.48.292.292,0,0,1-.174.077.172.172,0,0,1-.077-.019q-.116-.058-.058-.213a7.379,7.379,0,0,0,.716-2.341.5.5,0,0,0-.077-.31q-.194-.232-1.084-.232-.329,0-.774.039-.484.058-.89.116a.225.225,0,0,1-.155-.039.063.063,0,0,1-.019-.077.146.146,0,0,1,.019-.058ZM.039,84.347q.1-.155.31-.02a20.613,20.613,0,0,0,10.525,2.806,20.821,20.821,0,0,0,7.488-1.413c.064-.026.158-.064.28-.116s.21-.09.261-.116a.345.345,0,0,1,.455.116q.165.233-.106.426-.349.252-.89.581a14.5,14.5,0,0,1-3.715,1.529A15.593,15.593,0,0,1,.116,84.656.265.265,0,0,1,0,84.462a.206.206,0,0,1,.039-.116Z" transform="translate(0 -69.332)" fill="#f90"/>
</svg>
