<svg xmlns="http://www.w3.org/2000/svg" width="40.951" height="40.951" viewBox="0 0 40.951 40.951">
  <g id="Icon_ionic-ios-arrow-dropleft" data-name="Icon ionic-ios-arrow-dropleft" transform="translate(-3.375 -3.375)">
    <path id="Path_3434" data-name="Path 3434" d="M20.328,10.341a1.233,1.233,0,0,0-1.737,0L12.52,16.43a1.227,1.227,0,0,0-.038,1.693l5.981,6A1.226,1.226,0,1,0,20.2,22.392l-5.078-5.154,5.211-5.16A1.227,1.227,0,0,0,20.328,10.341Z" transform="translate(7.424 6.616)" fill="#222"/>
    <path id="Path_3435" data-name="Path 3435" d="M23.851,3.375A20.476,20.476,0,1,0,44.326,23.851,20.472,20.472,0,0,0,23.851,3.375ZM36.1,36.1A17.318,17.318,0,1,1,11.6,11.6,17.318,17.318,0,1,1,36.1,36.1Z" transform="translate(0 0)" fill="#222"/>
  </g>
</svg>
