<svg xmlns="http://www.w3.org/2000/svg" width="23.095" height="19.835" viewBox="0 0 23.095 19.835">
  <path id="Union_17" data-name="Union 17" d="M0,19.833c.073-.164.145-.329.234-.485Q5.891,9.672,11.555,0c1.178,2.024,2.367,4.042,3.532,6.074C13.2,9.4,11.347,12.736,9.4,16.022c-.747,1.261-1.474,2.535-2.213,3.8q-2.327.014-4.654.012Zm15.884,0c-1.431-2.5-2.925-4.97-4.328-7.49,2.4,0,4.808-.018,7.212.022,1.432,2.5,2.909,4.964,4.328,7.467q-1.355.007-2.709.006Q18.135,19.835,15.884,19.829Z" fill="#ae285d"/>
</svg>
