<svg xmlns="http://www.w3.org/2000/svg" width="18.557" height="19.377" viewBox="0 0 18.557 19.377">
  <g id="box" transform="translate(-10.25)">
    <g id="Group_19057" data-name="Group 19057" transform="translate(10.25)">
      <path id="Path_8301" data-name="Path 8301" d="M28.786,4.793V4.752c-.02-.041-.02-.082-.041-.123v-.02a.447.447,0,0,0-.082-.1l-.02-.02c-.02-.02-.061-.041-.082-.061l-.02-.02h-.02l-.02-.02L19.795.061a.652.652,0,0,0-.553,0L16.313,1.516,25.058,6l.02.02c.02,0,.02.02.041.02.02.02.02.041.041.061v4.813a.215.215,0,0,1-.1.184l-1.761.922a.207.207,0,0,1-.287-.082.153.153,0,0,1-.02-.1V7.189L14.142,2.622l-.02-.02L10.578,4.363l-.02.02h-.02l-.02.02c-.02.02-.061.041-.082.061l-.02.02c-.041.041-.061.082-.1.123v.02a.291.291,0,0,0-.041.123v.041c0,.041-.02.061-.02.1V14.46a.6.6,0,0,0,.348.553l8.623,4.3a.563.563,0,0,0,.41.041l.041-.02c.041,0,.061-.02.1-.041l8.684-4.3a.617.617,0,0,0,.348-.553V4.9A.185.185,0,0,1,28.786,4.793Z" transform="translate(-10.25 0)" fill="#a9bacb"/>
    </g>
  </g>
</svg>