<svg xmlns="http://www.w3.org/2000/svg" width="16.126" height="14.11" viewBox="0 0 16.126 14.11">
  <g id="credit-card_5_" data-name="credit-card (5)" transform="translate(0 -32.004)">
    <g id="Group_19319" data-name="Group 19319" transform="translate(0 35.027)">
      <g id="Group_19318" data-name="Group 19318">
        <path id="Path_9240" data-name="Path 9240" d="M15.622,134.043a.5.5,0,0,0-.5.5v3.528H1.008v-6.047H6.551a.5.5,0,0,0,0-1.008H1.008V129H6.551a.5.5,0,1,0,0-1.008H1.008A1.008,1.008,0,0,0,0,129v9.071a1.008,1.008,0,0,0,1.008,1.008h14.11a1.008,1.008,0,0,0,1.008-1.008v-3.528A.5.5,0,0,0,15.622,134.043Z" transform="translate(0 -127.996)" fill="#293341"/>
      </g>
    </g>
    <g id="Group_19321" data-name="Group 19321" transform="translate(2.016 41.075)">
      <g id="Group_19320" data-name="Group 19320">
        <path id="Path_9241" data-name="Path 9241" d="M66.52,320H64.5a.5.5,0,1,0,0,1.008H66.52a.5.5,0,1,0,0-1.008Z" transform="translate(-64 -319.996)" fill="#293341"/>
      </g>
    </g>
    <g id="Group_19323" data-name="Group 19323" transform="translate(8.063 32.004)">
      <g id="Group_19322" data-name="Group 19322">
        <path id="Path_9242" data-name="Path 9242" d="M263.758,33.556l-3.528-1.512a.515.515,0,0,0-.4,0L256.3,33.556a.505.505,0,0,0-.3.464v2.016c0,2.773,1.025,4.393,3.781,5.981a.507.507,0,0,0,.5,0c2.756-1.583,3.781-3.2,3.781-5.981V34.019A.5.5,0,0,0,263.758,33.556Zm-.7,2.479c0,2.327-.77,3.608-3.024,4.959-2.254-1.354-3.024-2.635-3.024-4.959V34.352l3.024-1.3,3.024,1.3Z" transform="translate(-256 -32.004)" fill="#293341"/>
      </g>
    </g>
    <g id="Group_19325" data-name="Group 19325" transform="translate(10.079 35.028)">
      <g id="Group_19324" data-name="Group 19324">
        <path id="Path_9243" data-name="Path 9243" d="M323.854,128.125a.507.507,0,0,0-.709.079l-1.584,1.981-.627-.937a.5.5,0,1,0-.839.558l1.008,1.512a.508.508,0,0,0,.4.225h.021a.5.5,0,0,0,.394-.189l2.016-2.52A.5.5,0,0,0,323.854,128.125Z" transform="translate(-320.011 -128.016)" fill="#293341"/>
      </g>
    </g>
  </g>
</svg>
