<svg id="Layer_1" data-name="Layer 1" xmlns="http://www.w3.org/2000/svg" xmlns:xlink="http://www.w3.org/1999/xlink" viewBox="0 0 36.03 22"><defs><style>.cls-1{fill:#fff;}.cls-2{fill:#016fd0;}.cls-3{mask:url(#mask);}.cls-4{fill:#f7f7f7;}.cls-5{mask:url(#mask-2);}.cls-6{fill:#006fcf;}</style><mask id="mask" x="3.45" y="5.55" width="29.12" height="11.92" maskUnits="userSpaceOnUse"><g id="bluebox-55x54-b"><polygon id="bluebox-55x54-a" class="cls-1" points="3.45 5.55 3.45 17.47 32.56 17.47 32.56 5.55 3.45 5.55"/></g></mask><mask id="mask-2" x="9.19" y="13.21" width="23.39" height="3.43" maskUnits="userSpaceOnUse"><g id="bluebox-55x54-d"><polygon id="bluebox-55x54-c" class="cls-1" points="32.58 16.64 32.58 13.21 9.19 13.21 9.19 16.64 32.58 16.64"/></g></mask></defs><rect class="cls-2" width="36.03" height="22" rx="1.6"/><g class="cls-3"><path class="cls-4" d="M29,10.63h2.18V5.55H28.85v.81l-.52-.81h-2v1l-.46-1H22.48a3.59,3.59,0,0,0-.47,0,2.34,2.34,0,0,0-.38.09l-.28.11a1.46,1.46,0,0,0-.3.17v-.4h-11l-.3.88-.31-.88H6.92v1l-.46-1H4.38L3.45,7.72v2.91H4.92L5.2,9.9h.52l.27.73H17.34V9.89l.57.74h3.14v-.37a1.23,1.23,0,0,0,.25.14,1.17,1.17,0,0,0,.26.1l.33.09a3.23,3.23,0,0,0,.53,0H24.3l.28-.73h.51l.28.73h3.15V9.88Zm3.56,6.53V12.38H14.5L14,13l-.46-.66H8.39v5.09h5.17l.46-.66.46.66h3.24v-1.1h0a3.15,3.15,0,0,0,1.09-.19v1.29H21v-.74l.57.74h9.8a2.45,2.45,0,0,0,.78-.13A2.12,2.12,0,0,0,32.56,17.16Z"/></g><g class="cls-5"><path class="cls-6" d="M31.43,16H29.67v.68H31.4a1.07,1.07,0,0,0,1.18-1.09.93.93,0,0,0-1.06-1h-.79a.32.32,0,0,1-.34-.33.33.33,0,0,1,.34-.34h1.48l.31-.7H30.75a1.06,1.06,0,0,0-1.18,1.07,1,1,0,0,0,1.07,1h.79a.31.31,0,0,1,.33.33A.33.33,0,0,1,31.43,16Zm-3.27,0H26.4v.68h1.74a1.07,1.07,0,0,0,1.18-1.09.94.94,0,0,0-1.06-1h-.8a.31.31,0,0,1-.33-.33.32.32,0,0,1,.33-.34H29l.31-.7H27.49a1.06,1.06,0,0,0-1.18,1.07,1,1,0,0,0,1.06,1h.79a.31.31,0,0,1,.34.33A.33.33,0,0,1,28.16,16ZM25.9,13.91v-.7H23.16v3.43H25.9V16H24v-.69h1.88v-.69H24v-.66Zm-4.59,0a.43.43,0,1,1,0,.85h-1v-.85Zm-1,1.5h.39l1,1.23h1l-1.14-1.26a1.07,1.07,0,0,0,.93-1.08,1.08,1.08,0,0,0-1.19-1.09H19.52v3.43h.82Zm-2.1-1.05a.4.4,0,0,1-.43.43h-1v-.85h1A.4.4,0,0,1,18.24,14.36ZM16,13.21v3.43h.82V15.51h1a1.12,1.12,0,0,0,1.21-1.15,1.09,1.09,0,0,0-1.18-1.15Zm-1.21,3.43h1l-1.38-1.73,1.37-1.7h-1L14,14.3l-.84-1.09h-1l1.37,1.72L12.1,16.64h1l.85-1.1Zm-2.86-2.73v-.7H9.19v3.43h2.74V16H10v-.69h1.88v-.69H10v-.66Z"/></g><path class="cls-6" d="M27.85,7.75V7.47l.18.28,1.31,2.06h1V6.38h-.8V8.62l-.16-.26-1.28-2h-1V9.81h.8Zm-3.28-.09L24.82,7l.25.65.3.75h-1.1Zm1.36,2.15h.93L25.39,6.38H24.31L22.84,9.81h.88L24,9.07h1.63Zm-3.59,0h.05l.33-.73h-.25a.85.85,0,0,1-.89-1v0a.85.85,0,0,1,.88-1h.9V6.38h-1a1.55,1.55,0,0,0-1.64,1.68v.06A1.53,1.53,0,0,0,22.34,9.81Zm-2.92,0h.82V6.38h-.82V9.81ZM17.69,7.08a.41.41,0,0,1,.45.42.41.41,0,0,1-.45.42h-1V7.08Zm-1,1.49h.39l1,1.24h1L18,8.54a1.09,1.09,0,0,0-.25-2.16H15.9V9.81h.82Zm-1.43-1.5V6.38H12.55V9.81h2.74v-.7H13.37V8.42h1.88V7.74H13.37V7.07Zm-6.82.39,0-.92,1,3.27h.74l1-3.25,0,.9V9.81h.79V6.38H10.42L9.77,8.81,9.12,6.38H7.67V9.81h.8Zm-3.28.2L5.44,7l.25.65.3.75H4.89ZM6.55,9.81h.93L6,6.38H4.93L3.46,9.81h.88l.29-.74H6.26Z"/></svg>