<svg xmlns="http://www.w3.org/2000/svg" width="23.688" height="21.001" viewBox="0 0 23.688 21.001">
  <g id="cash-on-delivery" transform="translate(-21.333 -21.329)">
    <path id="Path_5007" data-name="Path 5007" d="M37.484,261.894v-4.94A1.022,1.022,0,0,0,36.407,256H27.255a1.022,1.022,0,0,0-1.077.954v3.613l-1.091.322a1.038,1.038,0,0,0-1.063-.833H22.41a1.022,1.022,0,0,0-1.077.955v4.3a1.022,1.022,0,0,0,1.077.954h1.615a1.065,1.065,0,0,0,1.027-.684l1.59-.235a.985.985,0,0,1,.544.072l1.652.733a4.185,4.185,0,0,0,2.877.181l6.369-1.882a1.44,1.44,0,0,0,.869-.681,1.179,1.179,0,0,0,.05-1.027A1.511,1.511,0,0,0,37.484,261.894Zm-13.459,3.412H22.41v-4.3h1.615Zm8.614-8.352V258.5l-.53-.282a.6.6,0,0,0-.554,0l-.53.282v-1.543Zm-5.384,0h2.692v2.386a.471.471,0,0,0,.273.415.6.6,0,0,0,.542-.006l1.069-.569,1.069.569a.6.6,0,0,0,.542.006.471.471,0,0,0,.273-.415v-2.386h2.692v5.074l-2.915.383a1.31,1.31,0,0,0-.968-1.205l-3.352-.974a3.373,3.373,0,0,0-1.874,0l-.043.013Zm10.727,6.4a.39.39,0,0,1-.238.187l-6.369,1.882a2.985,2.985,0,0,1-2.055-.129l-1.652-.732a2.177,2.177,0,0,0-1.2-.16l-1.363.2v-2.71l2.537-.75a2.152,2.152,0,0,1,1.2,0l3.336.969a.328.328,0,0,1,.235.4.381.381,0,0,1-.431.242l-3.645-.587a.537.537,0,0,0-.626.384.485.485,0,0,0,.434.555l3.645.587a1.585,1.585,0,0,0,1.128-.238l4.644-.61a.416.416,0,0,1,.439.23A.319.319,0,0,1,37.982,263.354Z" transform="translate(0 -224.171)" fill="#293341"/>
    <path id="Path_5008" data-name="Path 5008" d="M135.1,21.806h-1.615a1.057,1.057,0,0,0-1.05.748l-5.762-1.136a4.2,4.2,0,0,0-2.534.256l-2.1.853a3.74,3.74,0,0,0-1.266.911l-.675.754h-1.688a1.022,1.022,0,0,0-1.077.955V29.92a1.022,1.022,0,0,0,1.077.955h11.305a1.022,1.022,0,0,0,1.077-.955V28.3c.1-.032.209-.066.311-.107l1.5-.595a1.121,1.121,0,0,0,.881.409H135.1a1.022,1.022,0,0,0,1.077-.955v-4.3A1.022,1.022,0,0,0,135.1,21.806Zm-5.383,8.113H118.411V25.147h9.255l-.129.225a.54.54,0,0,1-.408.257L124.074,26a1.3,1.3,0,0,0-1.217,1.324,1.352,1.352,0,0,0,1.408,1.166h5.3c.051,0,.1-.005.151-.007Zm.948-2.594a2.97,2.97,0,0,1-1.1.208h-5.3a.32.32,0,0,1-.333-.276.307.307,0,0,1,.288-.313l3.056-.369A1.619,1.619,0,0,0,128.5,25.8l.524-.918A.431.431,0,0,0,129,24.42a.556.556,0,0,0-.458-.227h-7.068l.144-.161a2.656,2.656,0,0,1,.888-.644l2.1-.853a3.013,3.013,0,0,1,1.828-.187l5.976,1.178v3.107Zm4.435-.269h-1.615v-4.3H135.1Z" transform="translate(-91.156)" fill="#293341"/>
  </g>
</svg>
