<svg xmlns="http://www.w3.org/2000/svg" width="29.874" height="26.139" viewBox="0 0 29.874 26.139">
  <g id="credit-card_5_" data-name="credit-card (5)" transform="translate(0 -32.004)">
    <g id="Group_19319" data-name="Group 19319" transform="translate(0 37.605)">
      <g id="Group_19318" data-name="Group 19318">
        <path id="Path_9240" data-name="Path 9240" d="M28.941,139.2a.934.934,0,0,0-.934.934v6.535H1.867v-11.2H12.136a.934.934,0,0,0,0-1.867H1.867v-3.734H12.136a.934.934,0,1,0,0-1.867H1.867A1.868,1.868,0,0,0,0,129.863v16.8a1.868,1.868,0,0,0,1.867,1.867h26.14a1.868,1.868,0,0,0,1.867-1.867v-6.535A.934.934,0,0,0,28.941,139.2Z" transform="translate(0 -127.996)" fill="#293341"/>
      </g>
    </g>
    <g id="Group_19321" data-name="Group 19321" transform="translate(3.734 48.808)">
      <g id="Group_19320" data-name="Group 19320">
        <path id="Path_9241" data-name="Path 9241" d="M68.668,320H64.934a.934.934,0,1,0,0,1.867h3.734a.934.934,0,0,0,0-1.867Z" transform="translate(-64 -319.996)" fill="#293341"/>
      </g>
    </g>
    <g id="Group_19323" data-name="Group 19323" transform="translate(14.937 32.004)">
      <g id="Group_19322" data-name="Group 19322">
        <path id="Path_9242" data-name="Path 9242" d="M270.371,34.879l-6.535-2.8a.953.953,0,0,0-.737,0l-6.535,2.8a.936.936,0,0,0-.564.859v3.734c0,5.136,1.9,8.139,7,11.08a.939.939,0,0,0,.93,0c5.1-2.933,7-5.936,7-11.08V35.738A.935.935,0,0,0,270.371,34.879Zm-1.3,4.593c0,4.311-1.427,6.684-5.6,9.186-4.175-2.508-5.6-4.881-5.6-9.186V36.354l5.6-2.4,5.6,2.4Z" transform="translate(-256 -32.004)" fill="#293341"/>
      </g>
    </g>
    <g id="Group_19325" data-name="Group 19325" transform="translate(18.672 37.606)">
      <g id="Group_19324" data-name="Group 19324">
        <path id="Path_9243" data-name="Path 9243" d="M327.13,128.219a.94.94,0,0,0-1.313.146l-2.935,3.671-1.161-1.736a.933.933,0,0,0-1.553,1.034l1.867,2.8a.941.941,0,0,0,.738.416h.039a.934.934,0,0,0,.73-.351l3.734-4.668A.934.934,0,0,0,327.13,128.219Z" transform="translate(-320.011 -128.016)" fill="#293341"/>
      </g>
    </g>
  </g>
</svg>
