<svg id="Group_19326" data-name="Group 19326" xmlns="http://www.w3.org/2000/svg" width="20.554" height="23.577" viewBox="0 0 20.554 23.577">
  <path id="Path_9244" data-name="Path 9244" d="M52.02,8.187l-2.311-.841a2.8,2.8,0,1,0-3.634-4.255L44.479,4.5l-.316-2.115a2.8,2.8,0,1,0-5.519.933l-2.179-.793a2.072,2.072,0,0,0-2.652,1.237L32.87,6.354a.69.69,0,0,0,.412.884l10.779,3.923H33.653a.69.69,0,0,0-.69.69v9.656a2.071,2.071,0,0,0,2.069,2.069H48.826A2.071,2.071,0,0,0,50.9,21.507V13.649l.534.194a.69.69,0,0,0,.884-.412l.944-2.592A2.072,2.072,0,0,0,52.02,8.187ZM39.86,22.2H35.032a.69.69,0,0,1-.69-.69V12.541H39.86Zm2.759,0H41.239V12.541h1.379ZM46.988,4.124a1.419,1.419,0,1,1,.455,2.4L45.2,5.7Zm-6.43-2.469A1.419,1.419,0,0,1,42.8,2.59l.354,2.369L40.91,4.143A1.426,1.426,0,0,1,40.558,1.655Zm.325,6.882L34.4,6.178l.708-1.944a.691.691,0,0,1,.884-.412l5.833,2.123Zm2.592.944-1.3-.472.944-2.592,1.3.472Zm6.041,12.027a.69.69,0,0,1-.69.69H44V12.541h3.853l1.665.606v8.36Zm2.444-11.14-.708,1.944L44.771,9.952l.944-2.592,5.833,2.123A.69.69,0,0,1,51.96,10.367Z" transform="translate(-32.828 0.001)" fill="#293341"/>
</svg>
