<svg id="Group_19323" data-name="Group 19323" xmlns="http://www.w3.org/2000/svg" width="8.063" height="10.078" viewBox="0 0 8.063 10.078">
  <g id="Group_19322" data-name="Group 19322">
    <path id="Path_9242" data-name="Path 9242" d="M263.758,33.556l-3.528-1.512a.515.515,0,0,0-.4,0L256.3,33.556a.505.505,0,0,0-.3.464v2.016c0,2.773,1.025,4.393,3.781,5.981a.507.507,0,0,0,.5,0c2.756-1.583,3.781-3.2,3.781-5.981V34.019A.5.5,0,0,0,263.758,33.556Zm-.7,2.479c0,2.327-.77,3.608-3.024,4.959-2.254-1.354-3.024-2.635-3.024-4.959V34.352l3.024-1.3,3.024,1.3Z" transform="translate(-256 -32.004)" fill="#293341"/>
  </g>
</svg>
