<svg xmlns="http://www.w3.org/2000/svg" width="19.246" height="21.995" viewBox="0 0 19.246 21.995">
  <path id="Union_16" data-name="Union 16" d="M11454.321-9579.738a19.334,19.334,0,0,1-4.059-5.4,11.323,11.323,0,0,1-1-7.59,9.07,9.07,0,0,1,3.566-5.46,9.993,9.993,0,0,1,5.788-1.811,10,10,0,0,1,5.794,1.813,9.072,9.072,0,0,1,3.563,5.466,11.322,11.322,0,0,1-1,7.587,19.334,19.334,0,0,1-4.067,5.4,6.154,6.154,0,0,1-4.294,1.732A6.182,6.182,0,0,1,11454.321-9579.738Zm-3.1-12.549c-1.042,4.6,1.864,8.58,4.489,11.107a4.183,4.183,0,0,0,2.913,1.174,4.169,4.169,0,0,0,2.907-1.174c2.628-2.524,5.54-6.5,4.5-11.1a7.317,7.317,0,0,0-7.405-5.723A7.314,7.314,0,0,0,11451.219-9592.287Zm3.283,1.6a4.125,4.125,0,0,1,4.122-4.119,4.124,4.124,0,0,1,4.119,4.119,4.126,4.126,0,0,1-4.119,4.121A4.127,4.127,0,0,1,11454.5-9590.689Zm2,0a2.125,2.125,0,0,0,2.121,2.121,2.122,2.122,0,0,0,2.118-2.121,2.12,2.12,0,0,0-2.118-2.119A2.123,2.123,0,0,0,11456.5-9590.689Z" transform="translate(-11448.999 9600.001)" fill="#293341"/>
</svg>
