<svg xmlns="http://www.w3.org/2000/svg" width="23.687" height="16.421" viewBox="0 0 23.687 16.421">
  <g id="delivery" transform="translate(0 -78.521)">
    <g id="Group_19275" data-name="Group 19275" transform="translate(14.904 88.971)">
      <g id="Group_19274" data-name="Group 19274" transform="translate(0 0)">
        <path id="Path_9230" data-name="Path 9230" d="M325.137,304.4a2.986,2.986,0,1,0,2.986,2.986A2.989,2.989,0,0,0,325.137,304.4Zm0,4.479a1.493,1.493,0,1,1,1.493-1.493A1.494,1.494,0,0,1,325.137,308.882Z" transform="translate(-322.151 -304.403)" fill="#293341"/>
      </g>
    </g>
    <g id="Group_19277" data-name="Group 19277" transform="translate(4.702 88.971)">
      <g id="Group_19276" data-name="Group 19276" transform="translate(0 0)">
        <path id="Path_9231" data-name="Path 9231" d="M104.633,304.4a2.986,2.986,0,1,0,2.986,2.986A2.989,2.989,0,0,0,104.633,304.4Zm0,4.479a1.493,1.493,0,1,1,1.493-1.493A1.494,1.494,0,0,1,104.633,308.882Z" transform="translate(-101.647 -304.403)" fill="#293341"/>
      </g>
    </g>
    <g id="Group_19279" data-name="Group 19279" transform="translate(15.302 80.014)">
      <g id="Group_19278" data-name="Group 19278" transform="translate(0 0)">
        <path id="Path_9232" data-name="Path 9232" d="M335.354,111.2a.747.747,0,0,0-.667-.411h-3.931v1.493h3.471l2.033,4.043,1.334-.671Z" transform="translate(-330.756 -110.79)" fill="#293341"/>
      </g>
    </g>
    <g id="Group_19281" data-name="Group 19281" transform="translate(10.002 91.235)">
      <g id="Group_19280" data-name="Group 19280">
        <rect id="Rectangle_2773" data-name="Rectangle 2773" width="5.648" height="1.493" fill="#293341"/>
      </g>
    </g>
    <g id="Group_19283" data-name="Group 19283" transform="translate(2.115 91.235)">
      <g id="Group_19282" data-name="Group 19282">
        <path id="Path_9233" data-name="Path 9233" d="M49.049,353.345H46.461a.746.746,0,1,0,0,1.493h2.588a.746.746,0,1,0,0-1.493Z" transform="translate(-45.715 -353.345)" fill="#293341"/>
      </g>
    </g>
    <g id="Group_19285" data-name="Group 19285" transform="translate(2.115 78.521)">
      <g id="Group_19284" data-name="Group 19284" transform="translate(0 0)">
        <path id="Path_9234" data-name="Path 9234" d="M67.13,86.672l-1.468-1.891a.745.745,0,0,0-.589-.289H59.648V79.267a.746.746,0,0,0-.746-.746H46.461a.746.746,0,1,0,0,1.493H58.155v5.225a.746.746,0,0,0,.746.746h5.8l1.087,1.4v3.85H63.729a.746.746,0,1,0,0,1.493H66.54a.746.746,0,0,0,.746-.746V87.13A.747.747,0,0,0,67.13,86.672Z" transform="translate(-45.715 -78.521)" fill="#293341"/>
      </g>
    </g>
    <g id="Group_19287" data-name="Group 19287" transform="translate(1.219 87.453)">
      <g id="Group_19286" data-name="Group 19286">
        <path id="Path_9235" data-name="Path 9235" d="M30.533,271.6H27.1a.746.746,0,1,0,0,1.493h3.434a.746.746,0,0,0,0-1.493Z" transform="translate(-26.353 -271.597)" fill="#293341"/>
      </g>
    </g>
    <g id="Group_19289" data-name="Group 19289" transform="translate(0 84.517)">
      <g id="Group_19288" data-name="Group 19288" transform="translate(0 0)">
        <path id="Path_9236" data-name="Path 9236" d="M7.116,208.134H.746a.746.746,0,0,0,0,1.493h6.37a.746.746,0,0,0,0-1.493Z" transform="translate(0 -208.134)" fill="#293341"/>
      </g>
    </g>
    <g id="Group_19291" data-name="Group 19291" transform="translate(1.219 81.581)">
      <g id="Group_19290" data-name="Group 19290" transform="translate(0 0)">
        <path id="Path_9237" data-name="Path 9237" d="M33.469,144.672H27.1a.746.746,0,1,0,0,1.493h6.37a.746.746,0,1,0,0-1.493Z" transform="translate(-26.353 -144.672)" fill="#293341"/>
      </g>
    </g>
  </g>
</svg>
