<svg xmlns="http://www.w3.org/2000/svg" width="40.424" height="37.057" viewBox="0 0 40.424 37.057">
  <g id="diamond" transform="translate(0 -0.999)">
    <path id="Path_3436" data-name="Path 3436" d="M20.212,38.054a.847.847,0,0,1-.645-.3L.2,14.749A.842.842,0,0,1,.1,13.8L6.894,1.438A.844.844,0,0,1,7.632,1h25.16a.84.84,0,0,1,.738.438L40.319,13.8a.839.839,0,0,1-.094.947L20.855,37.755A.841.841,0,0,1,20.212,38.054ZM1.86,14.105l18.352,21.8,18.352-21.8L32.293,2.684H8.13Z" transform="translate(0 0.001)"/>
    <path id="Path_3437" data-name="Path 3437" d="M38.989,10.184H1.092a.842.842,0,1,1,0-1.684h37.9a.842.842,0,1,1,0,1.684Z" transform="translate(0.171 5.133)"/>
    <path id="Path_3438" data-name="Path 3438" d="M24.29,14.843a.838.838,0,0,1-.689-.359L15.767,3.313,8.033,14.425a.841.841,0,1,1-1.381-.962l8.421-12.1A.839.839,0,0,1,15.762,1h0a.84.84,0,0,1,.689.359l8.526,12.159a.842.842,0,0,1-.689,1.326Z" transform="translate(4.448 0.001)"/>
    <path id="Path_3439" data-name="Path 3439" d="M17.453,38.055a.841.841,0,0,1-.793-.559L4.08,2.126A.842.842,0,1,1,5.666,1.56L17.453,34.7,29.24,1.56a.842.842,0,1,1,1.587.566L18.246,37.5a.841.841,0,0,1-.793.559Z" transform="translate(2.759 0)"/>
  </g>
</svg>
