<svg xmlns="http://www.w3.org/2000/svg" width="18.908" height="19.706" viewBox="0 0 18.908 19.706">
  <g id="discount_2_" data-name="discount (2)" transform="translate(-10.359 0.002)">
    <g id="Group_19233" data-name="Group 19233" transform="translate(10.359 -0.002)">
      <g id="Group_19232" data-name="Group 19232" transform="translate(0 0)">
        <path id="Path_5010" data-name="Path 5010" d="M28.356,10.106a.578.578,0,0,1,0-.51l.735-1.5a1.711,1.711,0,0,0-.738-2.272l-1.478-.784a.577.577,0,0,1-.3-.413l-.289-1.648a1.711,1.711,0,0,0-1.932-1.4L22.7,1.805a.577.577,0,0,1-.485-.158L21.008.484a1.711,1.711,0,0,0-2.389,0l-1.2,1.164a.578.578,0,0,1-.485.158l-1.657-.234a1.711,1.711,0,0,0-1.932,1.4l-.289,1.648a.578.578,0,0,1-.3.413l-1.478.784a1.711,1.711,0,0,0-.738,2.272l.735,1.5a.577.577,0,0,1,0,.51l-.735,1.5a1.711,1.711,0,0,0,.738,2.272l1.478.784a.578.578,0,0,1,.3.413l.289,1.648a1.71,1.71,0,0,0,1.686,1.421,1.758,1.758,0,0,0,.246-.017l1.657-.234a.577.577,0,0,1,.485.158l1.2,1.164a1.711,1.711,0,0,0,2.389,0l1.2-1.164A.578.578,0,0,1,22.7,17.9l1.657.234a1.71,1.71,0,0,0,1.932-1.4l.289-1.648a.578.578,0,0,1,.3-.413l1.478-.784a1.711,1.711,0,0,0,.738-2.272ZM17.54,4.737A2.084,2.084,0,1,1,15.456,6.82,2.086,2.086,0,0,1,17.54,4.737ZM16.465,14a.568.568,0,0,1-.8-.8l7.5-7.5a.568.568,0,1,1,.8.8Zm5.622.962a2.084,2.084,0,1,1,2.084-2.084A2.086,2.086,0,0,1,22.086,14.966Z" transform="translate(-10.359 0.002)" fill="#008d58"/>
      </g>
    </g>
    <g id="Group_19235" data-name="Group 19235" transform="translate(21.139 11.935)">
      <g id="Group_19234" data-name="Group 19234">
        <path id="Path_5011" data-name="Path 5011" d="M291.4,310.141a.947.947,0,1,0,.947.947A.948.948,0,0,0,291.4,310.141Z" transform="translate(-290.452 -310.141)" fill="#008d58"/>
      </g>
    </g>
    <g id="Group_19237" data-name="Group 19237" transform="translate(16.593 5.873)">
      <g id="Group_19236" data-name="Group 19236">
        <path id="Path_5012" data-name="Path 5012" d="M173.28,152.646a.947.947,0,1,0,.947.947A.948.948,0,0,0,173.28,152.646Z" transform="translate(-172.333 -152.646)" fill="#008d58"/>
      </g>
    </g>
  </g>
</svg>
