<svg xmlns="http://www.w3.org/2000/svg" width="20.777" height="16.325" viewBox="0 0 20.777 16.325">
  <g id="transfer" transform="translate(0 -51.198)">
    <g id="Group_19231" data-name="Group 19231" transform="translate(0 51.198)">
      <path id="Path_5009" data-name="Path 5009" d="M20.56,56.61l-5.194-5.194a.742.742,0,0,0-1.267.525v2.226H8.9a.742.742,0,1,0,0,1.484h5.936a.742.742,0,0,0,.742-.742V53.731l3.4,3.4-3.4,3.4V59.361a.742.742,0,0,0-.742-.742H6.678V56.392a.742.742,0,0,0-1.267-.525L.217,61.062a.742.742,0,0,0,0,1.049l5.194,5.194a.742.742,0,0,0,.525.217.733.733,0,0,0,.284-.056.742.742,0,0,0,.458-.686V64.555h5.194a.742.742,0,0,0,0-1.484H5.936a.742.742,0,0,0-.742.742V64.99l-3.4-3.4,3.4-3.4v1.177a.742.742,0,0,0,.742.742H14.1v2.226a.742.742,0,0,0,1.267.525l5.194-5.194A.742.742,0,0,0,20.56,56.61Z" transform="translate(0 -51.198)" fill="#293341"/>
    </g>
  </g>
</svg>
