<svg xmlns="http://www.w3.org/2000/svg" width="54.915" height="32.034" viewBox="0 0 54.915 32.034">
  <g id="fast" transform="translate(0 -7)">
    <path id="Path_3440" data-name="Path 3440" d="M9.72,20.288H5.144a1.144,1.144,0,0,1,0-2.288H9.72a1.144,1.144,0,1,1,0,2.288Z" transform="translate(5.153 14.169)"/>
    <path id="Path_3441" data-name="Path 3441" d="M34.666,30.593h-2.86a1.144,1.144,0,1,1,0-2.288h1.911l1.542-8.219a8.008,8.008,0,0,0-8.029-7.8H19.718l-3.64,16.017h6.576a1.144,1.144,0,0,1,0,2.288H14.645a1.144,1.144,0,0,1-1.117-1.4l4.16-18.305A1.143,1.143,0,0,1,18.8,10h8.425a10.309,10.309,0,0,1,10.3,10.3L35.789,29.66A1.141,1.141,0,0,1,34.666,30.593Z" transform="translate(17.389 3.864)"/>
    <path id="Path_3442" data-name="Path 3442" d="M22.72,27.441a5.72,5.72,0,1,1,5.72-5.72A5.727,5.727,0,0,1,22.72,27.441Zm0-9.153a3.432,3.432,0,1,0,3.432,3.432A3.436,3.436,0,0,0,22.72,18.288Z" transform="translate(21.898 11.593)"/>
    <path id="Path_3443" data-name="Path 3443" d="M11.72,27.441a5.72,5.72,0,1,1,5.72-5.72A5.727,5.727,0,0,1,11.72,27.441Zm0-9.153a3.432,3.432,0,1,0,3.432,3.432A3.436,3.436,0,0,0,11.72,18.288Z" transform="translate(7.729 11.593)"/>
    <path id="Path_3444" data-name="Path 3444" d="M12.3,11.288H3.144A1.144,1.144,0,0,1,3.144,9H12.3a1.144,1.144,0,0,1,0,2.288Z" transform="translate(2.576 2.576)"/>
    <path id="Path_3445" data-name="Path 3445" d="M13.585,14.288H2.144a1.144,1.144,0,0,1,0-2.288H13.585a1.144,1.144,0,0,1,0,2.288Z" transform="translate(1.288 6.441)"/>
    <path id="Path_3446" data-name="Path 3446" d="M14.873,17.288H1.144a1.144,1.144,0,0,1,0-2.288H14.873a1.144,1.144,0,1,1,0,2.288Z" transform="translate(0 10.305)"/>
    <path id="Path_3447" data-name="Path 3447" d="M26.881,34.458H18.873a1.144,1.144,0,0,1,0-2.288h7.1l5.2-22.881H5.144A1.144,1.144,0,1,1,5.144,7H32.6a1.144,1.144,0,0,1,1.117,1.4L28,33.565A1.145,1.145,0,0,1,26.881,34.458Z" transform="translate(5.153 0)"/>
  </g>
</svg>
