<svg xmlns="http://www.w3.org/2000/svg" width="18.422" height="20.469" viewBox="0 0 18.422 20.469">
  <g id="Icon_feather-user" data-name="Icon feather-user" transform="translate(-4.5 -3)">
    <path id="Path_3436" data-name="Path 3436" d="M21.9,29.188a1.023,1.023,0,0,1-1.023-1.023V26.117a3.074,3.074,0,0,0-3.07-3.07H9.617a3.07,3.07,0,0,0-3.07,3.07v2.047a1.023,1.023,0,0,1-2.047,0V26.117A5.117,5.117,0,0,1,9.617,21H17.8a5.123,5.123,0,0,1,5.117,5.117v2.047A1.023,1.023,0,0,1,21.9,29.188Z" transform="translate(0 -5.719)"/>
    <path id="Path_3437" data-name="Path 3437" d="M15.617,3A5.117,5.117,0,1,1,10.5,8.117,5.123,5.123,0,0,1,15.617,3Zm0,8.188a3.07,3.07,0,1,0-3.07-3.07A3.074,3.074,0,0,0,15.617,11.188Z" transform="translate(-1.906 0)"/>
  </g>
</svg>
