<svg id="Icon_feather-shopping-cart" data-name="Icon feather-shopping-cart" xmlns="http://www.w3.org/2000/svg" width="21.984" height="21.068" viewBox="0 0 21.984 21.068">
  <path id="Path_3436" data-name="Path 3436" d="M12.332,28.5A1.832,1.832,0,1,1,10.5,30.332,1.834,1.834,0,0,1,12.332,28.5Z" transform="translate(-4.088 -11.096)"/>
  <path id="Path_3437" data-name="Path 3437" d="M28.832,28.5A1.832,1.832,0,1,1,27,30.332,1.834,1.834,0,0,1,28.832,28.5Z" transform="translate(-10.512 -11.096)"/>
  <path id="Path_3438" data-name="Path 3438" d="M17.807,15.572H8.875A2.745,2.745,0,0,1,6.136,13.36L4.606,5.715q-.009-.038-.015-.077L3.829,1.832H.916A.916.916,0,0,1,.916,0H4.58a.916.916,0,0,1,.9.736L6.248,4.58H21.068a.916.916,0,0,1,.9,1.088L20.5,13.353v.007A2.745,2.745,0,0,1,17.807,15.572ZM8.867,13.74h8.939a.915.915,0,0,0,.9-.735l1.257-6.594H6.614L7.933,13a.915.915,0,0,0,.916.739Z" transform="translate(0 0)"/>
</svg>
