<svg xmlns="http://www.w3.org/2000/svg" width="11.939" height="11.438" viewBox="0 0 11.939 11.438">
  <path id="Icon_feather-phone-call" data-name="Icon feather-phone-call" d="M4.807,1.5A1.565,1.565,0,0,1,6.356,2.846v0A6.185,6.185,0,0,0,6.694,4.2a1.569,1.569,0,0,1-.353,1.65l0,0-.374.374A7.83,7.83,0,0,0,8.357,8.62l.374-.374,0,0a1.565,1.565,0,0,1,1.651-.352,6.182,6.182,0,0,0,1.35.336h0A1.565,1.565,0,0,1,13.085,9.81v1.558a1.565,1.565,0,0,1-1.565,1.57c-.047,0-.094,0-.141-.006H11.37A10.9,10.9,0,0,1,6.643,11.25,10.763,10.763,0,0,1,3.356,7.963,10.9,10.9,0,0,1,1.675,3.214V3.206A1.565,1.565,0,0,1,3.231,1.5Zm.516,1.49a.524.524,0,0,0-.516-.447H3.232a.522.522,0,0,0-.519.565A9.848,9.848,0,0,0,4.233,7.4l0,0A9.713,9.713,0,0,0,7.2,10.371l0,0a9.85,9.85,0,0,0,4.269,1.52l.043,0a.522.522,0,0,0,.522-.524s0,0,0,0V9.8s0-.009,0-.013a.522.522,0,0,0-.447-.529,7.23,7.23,0,0,1-1.577-.393.521.521,0,0,0-.551.116l-.661.661a.522.522,0,0,1-.627.085A8.872,8.872,0,0,1,4.854,6.405a.522.522,0,0,1,.085-.627L5.6,5.118a.523.523,0,0,0,.117-.55A7.233,7.233,0,0,1,5.323,2.99ZM12.186,2.8a.788.788,0,0,1,.618.423,4.1,4.1,0,0,1,.312.586A6.26,6.26,0,0,1,13.6,5.583a.522.522,0,0,1-.984.293,19.12,19.12,0,0,1-.8-1.752c-.187-.5-.258-.812-.1-1.067A.544.544,0,0,1,12.186,2.8ZM10.509,4.017c.356,0,.545.322.693.623a3.743,3.743,0,0,1,.309.906.522.522,0,0,1-.969.351c-.194-.354-.34-.644-.433-.861a.818.818,0,0,1-.056-.759A.533.533,0,0,1,10.509,4.017Z" transform="translate(-1.668 -1.5)" fill="#fff"/>
</svg>
