<svg xmlns="http://www.w3.org/2000/svg" width="10.78" height="8.82" viewBox="0 0 10.78 8.82">
  <g id="Icon_feather-mail" data-name="Icon feather-mail" transform="translate(-1.5 -4.5)">
    <path id="Path_3436" data-name="Path 3436" d="M2.97,4.5h7.84a1.472,1.472,0,0,1,1.47,1.47v5.88a1.472,1.472,0,0,1-1.47,1.47H2.97A1.472,1.472,0,0,1,1.5,11.85V5.97A1.472,1.472,0,0,1,2.97,4.5Zm7.84,7.84a.491.491,0,0,0,.49-.49V5.97a.491.491,0,0,0-.49-.49H2.97a.491.491,0,0,0-.49.49v5.88a.491.491,0,0,0,.49.49Z" transform="translate(0)" fill="#fff"/>
    <path id="Path_3437" data-name="Path 3437" d="M6.89,11.91a.489.489,0,0,1-.281-.089l-4.9-3.43a.49.49,0,1,1,.562-.8L6.89,10.822l4.619-3.233a.49.49,0,1,1,.562.8l-4.9,3.43A.489.489,0,0,1,6.89,11.91Z" transform="translate(0 -2.02)" fill="#fff"/>
  </g>
</svg>
