<?xml version="1.0" encoding="utf-8"?>
<!-- Generator: Adobe Illustrator 26.0.1, SVG Export Plug-In . SVG Version: 6.00 Build 0)  -->
<svg version="1.1" id="Layer_1" xmlns="http://www.w3.org/2000/svg" xmlns:xlink="http://www.w3.org/1999/xlink" x="0px" y="0px"
	 viewBox="0 0 157 55" style="enable-background:new 0 0 157 55;" xml:space="preserve">
<style type="text/css">
	.st0{enable-background:new    ;}
	.st1{fill:#FFFFFF;}
</style>
<g>
	<g class="st0">
		<path class="st1" d="M3,42V12.6h18.4v3.6h-14v9.3H19v3.6H7.4V42H3z"/>
		<path class="st1" d="M32.9,42.5c-2,0-3.8-0.5-5.4-1.4c-1.6-0.9-2.8-2.2-3.8-3.8c-0.9-1.6-1.4-3.5-1.4-5.7s0.5-4.1,1.4-5.7
			c0.9-1.6,2.2-2.9,3.8-3.8c1.6-0.9,3.4-1.4,5.3-1.4c2,0,3.8,0.5,5.4,1.4c1.6,0.9,2.8,2.2,3.8,3.8c0.9,1.6,1.4,3.5,1.4,5.7
			s-0.5,4.1-1.4,5.7c-0.9,1.6-2.2,2.9-3.8,3.8C36.7,42,34.9,42.5,32.9,42.5z M32.9,38.7c1.1,0,2.1-0.3,3-0.8
			c0.9-0.5,1.6-1.3,2.2-2.4c0.6-1,0.8-2.4,0.8-3.9c0-1.6-0.3-2.9-0.8-3.9s-1.3-1.8-2.2-2.4c-0.9-0.5-1.9-0.8-3-0.8
			c-1.1,0-2.1,0.3-3,0.8c-0.9,0.5-1.6,1.3-2.2,2.4c-0.6,1-0.8,2.4-0.8,3.9c0,1.6,0.3,2.9,0.8,3.9c0.6,1,1.3,1.8,2.2,2.4
			C30.8,38.4,31.8,38.7,32.9,38.7z"/>
		<path class="st1" d="M56.6,42.5c-2,0-3.8-0.5-5.4-1.4c-1.6-0.9-2.8-2.2-3.8-3.8c-0.9-1.6-1.4-3.5-1.4-5.7s0.5-4.1,1.4-5.7
			c0.9-1.6,2.2-2.9,3.8-3.8c1.6-0.9,3.4-1.4,5.3-1.4c2,0,3.8,0.5,5.4,1.4c1.6,0.9,2.8,2.2,3.8,3.8c0.9,1.6,1.4,3.5,1.4,5.7
			s-0.5,4.1-1.4,5.7c-0.9,1.6-2.2,2.9-3.8,3.8C60.4,42,58.6,42.5,56.6,42.5z M56.6,38.7c1.1,0,2.1-0.3,3-0.8
			c0.9-0.5,1.6-1.3,2.2-2.4c0.6-1,0.8-2.4,0.8-3.9c0-1.6-0.3-2.9-0.8-3.9s-1.3-1.8-2.2-2.4c-0.9-0.5-1.9-0.8-3-0.8
			c-1.1,0-2.1,0.3-3,0.8c-0.9,0.5-1.6,1.3-2.2,2.4c-0.6,1-0.8,2.4-0.8,3.9c0,1.6,0.3,2.9,0.8,3.9c0.6,1,1.3,1.8,2.2,2.4
			C54.5,38.4,55.5,38.7,56.6,38.7z"/>
		<path class="st1" d="M78.4,42c-2,0-3.7-0.5-4.9-1.5c-1.2-1-1.8-2.8-1.8-5.3V24.9h-3.6v-3.7h3.6l0.5-5.3h3.9v5.3h5.9v3.7h-5.9v10.3
			c0,1.1,0.2,1.9,0.7,2.4c0.5,0.4,1.3,0.7,2.5,0.7h2.4V42H78.4z"/>
	</g>
	<g class="st0">
		<path class="st1" d="M95.3,42.5c-2.1,0-4-0.5-5.6-1.4c-1.6-0.9-2.9-2.2-3.8-3.9c-0.9-1.7-1.4-3.5-1.4-5.7s0.5-4,1.4-5.7
			c0.9-1.7,2.2-2.9,3.8-3.9c1.6-0.9,3.5-1.4,5.6-1.4c2.7,0,4.9,0.7,6.7,2.1c1.8,1.4,3,3.3,3.5,5.7h-5.7c-0.3-1-0.8-1.8-1.7-2.4
			c-0.8-0.6-1.8-0.9-2.9-0.9c-1.5,0-2.7,0.6-3.8,1.7c-1,1.1-1.6,2.7-1.6,4.7c0,2,0.5,3.5,1.6,4.7c1,1.1,2.3,1.7,3.8,1.7
			c1.1,0,2.1-0.3,2.9-0.8c0.8-0.6,1.4-1.4,1.7-2.4h5.7c-0.5,2.4-1.7,4.2-3.5,5.7C100.2,41.8,98,42.5,95.3,42.5z"/>
		<path class="st1" d="M116,42.5c-1.8,0-3.3-0.3-4.4-0.9c-1.1-0.6-2-1.3-2.6-2.3c-0.6-1-0.8-2-0.8-3.1c0-1.9,0.8-3.5,2.3-4.7
			c1.5-1.2,3.8-1.8,6.8-1.8h5.3v-0.5c0-1.4-0.4-2.5-1.2-3.2c-0.8-0.7-1.8-1-3-1c-1.1,0-2,0.3-2.9,0.8c-0.8,0.5-1.3,1.3-1.5,2.3h-5.2
			c0.1-1.5,0.7-2.8,1.5-3.9c0.9-1.1,2-2,3.4-2.6c1.4-0.6,3-0.9,4.7-0.9c3,0,5.3,0.7,7,2.2c1.7,1.5,2.6,3.6,2.6,6.3V42h-4.6l-0.5-3.4
			c-0.6,1.1-1.5,2-2.6,2.8S117.7,42.5,116,42.5z M117.2,38.3c1.5,0,2.7-0.5,3.6-1.5c0.9-1,1.4-2.3,1.6-3.7h-4.6
			c-1.4,0-2.5,0.3-3.1,0.8c-0.6,0.5-0.9,1.2-0.9,1.9c0,0.8,0.3,1.4,0.9,1.9C115.4,38.1,116.2,38.3,117.2,38.3z"/>
		<path class="st1" d="M131.6,51.2V21.2h4.8l0.6,3c0.7-0.9,1.6-1.7,2.7-2.4c1.1-0.7,2.5-1,4.3-1c2,0,3.7,0.5,5.2,1.4
			c1.5,1,2.8,2.3,3.7,3.9c0.9,1.7,1.3,3.5,1.3,5.6s-0.4,4-1.3,5.6c-0.9,1.6-2.1,2.9-3.7,3.9c-1.5,0.9-3.3,1.4-5.2,1.4
			c-1.6,0-2.9-0.3-4.1-0.9s-2.1-1.4-2.9-2.5v12.1H131.6z M142.8,37.8c1.7,0,3.1-0.6,4.2-1.7c1.1-1.1,1.7-2.6,1.7-4.5
			c0-1.8-0.6-3.3-1.7-4.5s-2.5-1.8-4.2-1.8c-1.7,0-3.2,0.6-4.3,1.7c-1.1,1.2-1.7,2.7-1.7,4.5c0,1.8,0.6,3.3,1.7,4.5
			C139.6,37.2,141.1,37.8,142.8,37.8z"/>
	</g>
</g>
</svg>
