<svg xmlns="http://www.w3.org/2000/svg" width="7.97" height="8" viewBox="0 0 7.97 8">
  <g id="Group_58410" data-name="Group 58410" transform="translate(-813.998 -583)">
    <path id="Vector" d="M3.612,5.18l-.738.74a.4.4,0,0,1-.563,0c-.044-.044-.088-.084-.132-.128A11.358,11.358,0,0,1,1.066,4.488,7.135,7.135,0,0,1,.283,3.124,3.44,3.44,0,0,1,0,1.816a2.073,2.073,0,0,1,.144-.772A1.841,1.841,0,0,1,.6.376,1.168,1.168,0,0,1,1.433,0a.749.749,0,0,1,.323.072A.651.651,0,0,1,2.024.3L2.949,1.6a1.37,1.37,0,0,1,.16.28.633.633,0,0,1,.056.244.544.544,0,0,1-.084.284,1.36,1.36,0,0,1-.224.284l-.3.316a.214.214,0,0,0-.064.16.364.364,0,0,0,.012.092c.012.032.024.056.032.08a3.319,3.319,0,0,0,.371.512c.18.208.371.42.579.632.04.04.084.08.124.12A.4.4,0,0,1,3.612,5.18Z" transform="translate(813.998 583)" fill="#66829f"/>
    <path id="Vector-2" data-name="Vector" d="M4.937,1.716a1.018,1.018,0,0,1-.06.34.978.978,0,0,1-.04.1,1.651,1.651,0,0,1-.271.408,1.8,1.8,0,0,1-.655.472s-.008,0-.012,0a2.012,2.012,0,0,1-.766.148,3.32,3.32,0,0,1-1.3-.292A7.006,7.006,0,0,1,.459,2.1C.3,1.984.148,1.868,0,1.744L1.305.436a2.242,2.242,0,0,0,.3.192L1.672.66a.275.275,0,0,0,.1.016A.219.219,0,0,0,1.936.608l.3-.3A1.225,1.225,0,0,1,2.526.084.531.531,0,0,1,2.81,0a.636.636,0,0,1,.243.052,1.543,1.543,0,0,1,.279.156l1.321.94a.606.606,0,0,1,.22.256A.822.822,0,0,1,4.937,1.716Z" transform="translate(817.031 587.816)" fill="#66829f"/>
  </g>
</svg>
