<svg xmlns="http://www.w3.org/2000/svg" width="7.01" height="10.219" viewBox="0 0 7.01 10.219">
  <g id="Group_58408" data-name="Group 58408" transform="translate(-814.998 -483)">
    <path id="Vector" d="M2.365,0A2.4,2.4,0,0,0,0,2.427,2.39,2.39,0,0,0,2.305,4.849a.391.391,0,0,1,.11,0H2.45A2.393,2.393,0,0,0,4.73,2.427,2.4,2.4,0,0,0,2.365,0Z" transform="translate(816.138 483)" fill="#66829f"/>
    <path id="Vector-2" data-name="Vector" d="M6.034.713a4.835,4.835,0,0,0-5.053,0A2.026,2.026,0,0,0,0,2.363,2.008,2.008,0,0,0,.976,4a4.513,4.513,0,0,0,2.529.72A4.513,4.513,0,0,0,6.034,4a2.025,2.025,0,0,0,.976-1.65A2.021,2.021,0,0,0,6.034.713Z" transform="translate(814.998 488.495)" fill="#66829f"/>
  </g>
</svg>
