<svg xmlns="http://www.w3.org/2000/svg" width="22.506" height="22.503" viewBox="0 0 22.506 22.503">
  <g id="freecharge-logo-icon" transform="translate(0.002 0.004)">
    <path id="Path_9276" data-name="Path 9276" d="M22.5,11.292A11.254,11.254,0,1,1,11.491,0,11.225,11.225,0,0,1,22.5,11.292Z" transform="translate(0 0)" fill="#df714d"/>
    <path id="Path_9277" data-name="Path 9277" d="M46.439,29.1c.264-.7.321-1.445.716-1.74a6.427,6.427,0,0,1,2.084-.617l.293-1.4c-2.286-.722-4.227.244-4.842,2.346-.366,1.249-.366,1.249-1.661,1.518-.06.494-.123,1-.194,1.568h1.557L42.34,34.9l1.465.081-1.344,2.678,4.4-4.176-.064-.159H45.173c.951-.916,1.716-1.723,2.544-2.454a2.231,2.231,0,0,0,.7-1.764Z" transform="translate(-34.587 -20.51)" fill="#fff"/>
  </g>
</svg>
