<svg xmlns="http://www.w3.org/2000/svg" width="29.999" height="11.77" viewBox="0 0 29.999 11.77">
  <g id="G_Pay_Lockup_1_" transform="translate(0 -155.558)">
    <g id="Pay_Typeface_3_" transform="translate(12.9 156.183)">
      <path id="Letter_p_3_" d="M221.271,171.328v3.47h-1.1v-8.57h2.92a2.633,2.633,0,0,1,1.887.74,2.471,2.471,0,0,1,0,3.625,2.629,2.629,0,0,1-1.887.728h-1.818v.006Zm0-4.044v2.988h1.841a1.47,1.47,0,0,0,1.09-.442,1.444,1.444,0,0,0,.442-1.05,1.528,1.528,0,0,0-1.531-1.491h-1.841v-.006Z" transform="translate(-220.17 -166.229)" fill="#383e41"/>
      <path id="Letter_a_3_" d="M323.757,209.108a2.725,2.725,0,0,1,1.927.654,2.32,2.32,0,0,1,.706,1.79v3.614h-1.05v-.814h-.046a2.1,2.1,0,0,1-1.818,1,2.361,2.361,0,0,1-1.623-.574,1.832,1.832,0,0,1-.654-1.434,1.732,1.732,0,0,1,.688-1.445,2.888,2.888,0,0,1,1.836-.539,3.209,3.209,0,0,1,1.612.361v-.252a1.25,1.25,0,0,0-.453-.975,1.555,1.555,0,0,0-1.067-.4,1.673,1.673,0,0,0-1.457.78l-.969-.608A2.69,2.69,0,0,1,323.757,209.108Zm-1.422,4.256a.868.868,0,0,0,.367.717,1.348,1.348,0,0,0,.855.287,1.747,1.747,0,0,0,1.239-.516,1.62,1.62,0,0,0,.545-1.21,2.269,2.269,0,0,0-1.434-.407,1.882,1.882,0,0,0-1.119.321A.98.98,0,0,0,322.335,213.364Z" transform="translate(-315.279 -206.596)" fill="#383e41"/>
      <path id="Letter_y_3_" d="M417.811,212.338l-3.671,8.443H413l1.365-2.954-2.421-5.489h1.2l1.744,4.21h.023l1.7-4.21Z" transform="translate(-400.712 -209.636)" fill="#383e41"/>
    </g>
    <path id="Path_9270" data-name="Path 9270" d="M88.465,223.684H83.849v1.893h2.659a2.277,2.277,0,0,1-.987,1.525h0l-.048,1.131,1.63.1h0a4.811,4.811,0,0,0,1.454-3.613A5.8,5.8,0,0,0,88.465,223.684Z" transform="translate(-78.936 -64.134)" fill="#0085f7"/>
    <path id="Path_9271" data-name="Path 9271" d="M14.986,253.545h0a2.978,2.978,0,0,1-4.43-1.558h0l-1.361-.216-.271,1.482a4.914,4.914,0,0,0,4.391,2.706,4.687,4.687,0,0,0,3.253-1.187h0Z" transform="translate(-8.4 -90.578)" fill="#00a94b"/>
    <path id="Path_9272" data-name="Path 9272" d="M2,203.952a2.962,2.962,0,0,1,.154-.94l-.425-1.267H.523a4.921,4.921,0,0,0,0,4.413h0l1.632-1.266h0A2.962,2.962,0,0,1,2,203.952Z" transform="translate(0 -43.481)" fill="#fb0"/>
    <path id="Path_9273" data-name="Path 9273" d="M13.31,155.558a4.915,4.915,0,0,0-4.392,2.706l1.632,1.267a2.94,2.94,0,0,1,2.759-2.028,2.67,2.67,0,0,1,1.885.737l1.4-1.4A4.72,4.72,0,0,0,13.31,155.558Z" transform="translate(-8.395)" fill="#ff4031"/>
  </g>
</svg>
