<svg xmlns="http://www.w3.org/2000/svg" width="10" height="10" viewBox="0 0 10 10">
  <g id="vuesax_bold_house-2" data-name="vuesax/bold/house-2" transform="translate(-300 -188)">
    <g id="house-2" transform="translate(300 188)">
      <path id="Vector" d="M0,0H10V10H0Z" fill="none" opacity="0"/>
      <path id="Vector-2" data-name="Vector" d="M.313,0A.315.315,0,0,0,0,.313V.938a.315.315,0,0,0,.313.313A.315.315,0,0,0,.625.938V.313A.315.315,0,0,0,.313,0Z" transform="translate(3.854 6.458)" fill="#ff4e00"/>
      <path id="Vector-3" data-name="Vector" d="M8.646,7.8H8.229V3.1a.829.829,0,0,0-.321-.658L4.992.178a.826.826,0,0,0-1.025,0L1.05,2.445A.827.827,0,0,0,.729,3.1L.708,7.8h-.4a.313.313,0,0,0,0,.625H8.646a.313.313,0,0,0,0-.625ZM3.854,1.757H5.1a.313.313,0,0,1,0,.625H3.854a.313.313,0,0,1,0-.625ZM6.563,7.8H2.4V4.153a.624.624,0,0,1,.625-.625H5.938a.624.624,0,0,1,.625.625Z" transform="translate(0.521 1.055)" fill="#ff4e00"/>
    </g>
  </g>
</svg>
