<svg xmlns="http://www.w3.org/2000/svg" width="18.924" height="20.495" viewBox="0 0 18.924 20.495">
  <g id="Group_19602" data-name="Group 19602" transform="translate(-662.969 -686.063)">
    <path id="path160" d="M122.985,49.54c4.68-4.645,10.357-5.851,12.629-2.685s.275,9.566-4.4,14.212c-4.68,4.68-10.357,5.884-12.664,2.683-2.236-3.2-.239-9.566,4.439-14.21" transform="translate(545.34 640.975)" fill="#f06321"/>
    <path id="path162" d="M125.563,47.06a17.1,17.1,0,0,0-1.548,1.309C119.92,52.428,118.2,58,120.23,60.79c2.1,2.786,7.122,1.754,11.32-2.341a15.841,15.841,0,0,0,4.4-7.122,6.721,6.721,0,0,0-.86-4.474c-1.789-2.477-5.643-2.272-9.532.206" transform="translate(545.858 640.977)" fill="#ae282e"/>
    <path id="path164" d="M131.058,47.22v.1a3.178,3.178,0,0,1-1,1.926c-.929.894-2.167,1.238-2.685.724-.585-.55-.239-1.756.69-2.719.963-.929,2.2-1.238,2.717-.688a.881.881,0,0,1,.275.654M127.48,63.014c-2.2,1.651-4.474,2.478-6.677,2.134.929.034,1.687-1,2.306-2.375a23.739,23.739,0,0,0,1.273-3.958c.447-1.961.482-3.337.241-3.646-.378-.483-1.2-.378-2.169.172-.482.275-1.1.1-.377-.791a18.532,18.532,0,0,1,4.713-3.373c1.171-.31,2.478.138,2.031,1.41-.311.929-4.37,11.527-1.342,10.426" transform="translate(546.282 641.333)" fill="#fff"/>
  </g>
</svg>
