<svg xmlns="http://www.w3.org/2000/svg" width="17.256" height="11.526" viewBox="0 0 17.256 11.526">
  <path id="Icon_payment-cash" data-name="Icon payment-cash" d="M23.705,16.923V27.3a.74.74,0,0,1-.169.4.551.551,0,0,1-.4.169H7.022a.549.549,0,0,1-.4-.169.737.737,0,0,1-.169-.4V16.923a.739.739,0,0,1,.169-.4.552.552,0,0,1,.4-.169h16.11a.553.553,0,0,1,.4.169.742.742,0,0,1,.169.4ZM22.559,24.4V19.821a2.2,2.2,0,0,1-1.618-.674,2.244,2.244,0,0,1-.674-1.652H9.887a2.246,2.246,0,0,1-.674,1.652,2.206,2.206,0,0,1-1.618.674V24.4a2.208,2.208,0,0,1,1.618.674,2.247,2.247,0,0,1,.674,1.652h10.38a2.245,2.245,0,0,1,.674-1.652,2.207,2.207,0,0,1,1.618-.674Zm-4.617-2.292a5.906,5.906,0,0,1-.169,1.281,4.319,4.319,0,0,1-.539,1.213,2.929,2.929,0,0,1-.91.91,2.475,2.475,0,0,1-2.494,0,2.919,2.919,0,0,1-.91-.91,4.308,4.308,0,0,1-.539-1.213,5.878,5.878,0,0,1-.169-1.281,5.884,5.884,0,0,1,.169-1.281,4.306,4.306,0,0,1,.539-1.213,2.929,2.929,0,0,1,.91-.91,2.475,2.475,0,0,1,2.494,0,2.944,2.944,0,0,1,.91.91,4.321,4.321,0,0,1,.539,1.213,5.9,5.9,0,0,1,.169,1.281ZM13.358,24.4H16.8v-.843H15.65V19.518H14.639l-1.348,1.247.708.708a5.518,5.518,0,0,0,.472-.506H14.5v2.6H13.358V24.4Z" transform="translate(-6.449 -16.35)" fill="#293341"/>
</svg>
