<svg xmlns="http://www.w3.org/2000/svg" width="13" height="10.919" viewBox="0 0 13 10.919">
  <path id="Union_15" data-name="Union 15" d="M13627.457-9589.081c-1.962,0-2.457-.47-2.457-2.341v-1.825a.643.643,0,0,1,.65-.628h9.752a.642.642,0,0,1,.649.628v1.927c-.021,1.789-.528,2.239-2.46,2.239Zm1.676-2a.485.485,0,0,0,.489.472h2.234a.479.479,0,0,0,.489-.472.485.485,0,0,0-.489-.472h-2.234A.485.485,0,0,0,13629.133-9591.083Zm-2.507,0a.482.482,0,0,0,.487.472h1.111a.484.484,0,0,0,.493-.472.483.483,0,0,0-.486-.472h-1.118A.483.483,0,0,0,13626.626-9591.083Zm10.381-.9v-4.5a2.6,2.6,0,0,0-2.646-2.555h-7.066c-.167,0-.258-.178-.143-.284a2.274,2.274,0,0,1,.8-.468,3.767,3.767,0,0,1,1.326-.215h5.8c1.757,0,2.919.854,2.919,2.818v3.286a2.8,2.8,0,0,1-.7,2.048.166.166,0,0,1-.118.052A.179.179,0,0,1,13637.007-9591.98Zm-11.356-2.838a.641.641,0,0,1-.65-.625v-.365c0-1.7.41-2.238,1.949-2.328.158-.006.326-.012.508-.012h6.135c1.965,0,2.46.469,2.46,2.34v.365a.641.641,0,0,1-.649.625Z" transform="translate(-13625 9600)" fill="#a4aeb8"/>
</svg>
