<svg xmlns="http://www.w3.org/2000/svg" width="19.374" height="19.374" viewBox="0 0 19.374 19.374">
  <path id="Icon_ionic-ios-checkmark-circle" data-name="Icon ionic-ios-checkmark-circle" d="M13.062,3.375a9.687,9.687,0,1,0,9.687,9.687A9.685,9.685,0,0,0,13.062,3.375Zm4.96,7.009L11.8,16.638h0a.841.841,0,0,1-.54.256.815.815,0,0,1-.545-.265L8.1,14.021a.186.186,0,0,1,0-.265l.829-.829a.18.18,0,0,1,.261,0l2.068,2.068,5.682-5.724a.184.184,0,0,1,.13-.056h0a.169.169,0,0,1,.13.056l.815.843A.184.184,0,0,1,18.022,10.384Z" transform="translate(-3.375 -3.375)" fill="#008d58"/>
</svg>
