<svg xmlns="http://www.w3.org/2000/svg" width="11.031" height="12.476" viewBox="0 0 11.031 12.476">
  <path id="Vector" d="M10.481,4.343A2.885,2.885,0,0,0,8.56,3.519V3.045A3.05,3.05,0,0,0,5.217.014,3.211,3.211,0,0,0,2.472,3.158v.362a2.885,2.885,0,0,0-1.921.823,2.743,2.743,0,0,0-.518,2.2L.47,10.013c.131,1.216.624,2.464,3.306,2.464H7.256c2.682,0,3.175-1.247,3.306-2.458L11,6.532A2.758,2.758,0,0,0,10.481,4.343ZM5.3.881A2.174,2.174,0,0,1,7.693,3.045v.437H3.339V3.158A2.346,2.346,0,0,1,5.3.881ZM3.283,6.956H3.277a.627.627,0,1,1,.006,0Zm4.366,0H7.643a.627.627,0,1,1,.006,0Z" fill="#a4aeb8"/>
</svg>
