<svg xmlns="http://www.w3.org/2000/svg" width="11.857" height="11.329" viewBox="0 0 11.857 11.329">
  <path id="Icon_feather-star" data-name="Icon feather-star" d="M7.429,1.5a.539.539,0,0,1,.483.3l1.54,3.12,3.444.5a.539.539,0,0,1,.3.919L10.7,8.77l.588,3.429a.539.539,0,0,1-.782.568l-3.08-1.62-3.08,1.62a.539.539,0,0,1-.782-.568L4.155,8.77,1.663,6.343a.539.539,0,0,1,.3-.919l3.444-.5L6.945,1.8A.539.539,0,0,1,7.429,1.5ZM11.66,6.333,9.016,5.946a.539.539,0,0,1-.405-.295L7.429,3.257,6.247,5.651a.539.539,0,0,1-.405.295L3.2,6.333,5.11,8.2a.539.539,0,0,1,.155.477L4.814,11.3l2.364-1.243a.539.539,0,0,1,.5,0L10.044,11.3,9.592,8.673A.539.539,0,0,1,9.747,8.2Z" transform="translate(-1.5 -1.5)" fill="#293341"/>
</svg>
