<svg xmlns="http://www.w3.org/2000/svg" width="18.551" height="18.546" viewBox="0 0 18.551 18.546">
  <path id="Icon_awesome-instagram" data-name="Icon awesome-instagram" d="M9.272,6.756a4.755,4.755,0,1,0,4.755,4.755A4.748,4.748,0,0,0,9.272,6.756Zm0,7.847a3.091,3.091,0,1,1,3.091-3.091A3.1,3.1,0,0,1,9.272,14.6Zm6.059-8.041a1.109,1.109,0,1,1-1.109-1.109A1.107,1.107,0,0,1,15.331,6.561ZM18.48,7.687a5.489,5.489,0,0,0-1.5-3.886A5.525,5.525,0,0,0,13.1,2.3c-1.531-.087-6.121-.087-7.652,0A5.517,5.517,0,0,0,1.558,3.8,5.507,5.507,0,0,0,.06,7.683c-.087,1.531-.087,6.121,0,7.652a5.489,5.489,0,0,0,1.5,3.886,5.532,5.532,0,0,0,3.886,1.5c1.531.087,6.121.087,7.652,0a5.489,5.489,0,0,0,3.886-1.5,5.525,5.525,0,0,0,1.5-3.886c.087-1.531.087-6.117,0-7.648ZM16.5,16.978a3.13,3.13,0,0,1-1.763,1.763c-1.221.484-4.118.372-5.467.372s-4.25.108-5.467-.372a3.13,3.13,0,0,1-1.763-1.763c-.484-1.221-.372-4.118-.372-5.467s-.108-4.25.372-5.467A3.13,3.13,0,0,1,3.805,4.281c1.221-.484,4.118-.372,5.467-.372s4.25-.108,5.467.372A3.13,3.13,0,0,1,16.5,6.044c.484,1.221.372,4.118.372,5.467S16.986,15.761,16.5,16.978Z" transform="translate(0.005 -2.238)" fill="#293341"/>
</svg>
