<svg xmlns="http://www.w3.org/2000/svg" width="28.441" height="20.315" viewBox="0 0 28.441 20.315">
  <g id="Icon_ionic-ios-card" data-name="Icon ionic-ios-card" transform="translate(-2.25 -6.75)" opacity="0.31">
    <path id="Path_9268" data-name="Path 9268" d="M30.691,8.782A2.038,2.038,0,0,0,28.66,6.75H4.282A2.038,2.038,0,0,0,2.25,8.782v3.047H30.691Z" fill="#66829f"/>
    <path id="Path_9269" data-name="Path 9269" d="M2.25,25.908a2.038,2.038,0,0,0,2.032,2.032H28.66a2.038,2.038,0,0,0,2.032-2.032V15.75H2.25Zm9.015-3.047H21.676a.891.891,0,0,1,.889.889h0a.891.891,0,0,1-.889.889H11.265a.891.891,0,0,1-.889-.889h0A.891.891,0,0,1,11.265,22.86Zm-4.571,0h.762a.891.891,0,0,1,.889.889h0a.891.891,0,0,1-.889.889H6.694a.891.891,0,0,1-.889-.889h0A.891.891,0,0,1,6.694,22.86Z" transform="translate(0 -0.874)" fill="#66829f"/>
  </g>
</svg>
