<svg xmlns="http://www.w3.org/2000/svg" width="20.061" height="18.517" viewBox="0 0 20.061 18.517">
  <path id="Icon_ionic-md-heart-empty" data-name="Icon ionic-md-heart-empty" d="M17.919,4.5a5.934,5.934,0,0,0-4.514,2.117A5.934,5.934,0,0,0,8.892,4.5a5.454,5.454,0,0,0-5.517,5.55c0,3.834,3.409,6.91,8.574,11.655l1.456,1.312,1.456-1.312c5.165-4.745,8.574-7.822,8.574-11.655A5.454,5.454,0,0,0,17.919,4.5Zm-3.9,15.88-.2.188-.415.376-.415-.376-.2-.188A61.294,61.294,0,0,1,6.871,14.5,7.075,7.075,0,0,1,4.923,10.05a4.011,4.011,0,0,1,1.143-2.86A3.924,3.924,0,0,1,8.892,6.043,4.423,4.423,0,0,1,12.224,7.61l1.181,1.4,1.181-1.4a4.406,4.406,0,0,1,3.332-1.567A3.944,3.944,0,0,1,20.75,7.191a4.019,4.019,0,0,1,1.143,2.86A7.112,7.112,0,0,1,19.944,14.5,61.418,61.418,0,0,1,14.023,20.38Z" transform="translate(-3.375 -4.5)"/>
</svg>
