<svg xmlns="http://www.w3.org/2000/svg" width="18.924" height="13.419" viewBox="0 0 18.924 13.419">
  <g id="Group_19614" data-name="Group 19614" transform="translate(-17082 -9702.01)">
    <path id="Path_9296" data-name="Path 9296" d="M50.123,208.11c-.487,0-.623-.234-.623-.642V196.642c0-.506.234-.642.623-.642h2.142c.389,0,.623.117.623.642v8.372" transform="translate(17032.52 9507.06)" fill="#e83663" fill-rule="evenodd"/>
    <path id="Path_9297" data-name="Path 9297" d="M50.042,190.646l13.025,4.712c.565.273.642.409.642.9v2.1c0,.467-.078.642-.642.9l-13.025,4.731c-.292.117-.623.019-.623-.389V201.2c0-.565.175-.72.7-.9l8.975-3-8.995-3c-.526-.175-.7-.331-.7-.915v-2.317A.445.445,0,0,1,50.042,190.646Z" transform="translate(17032.6 9511.4)" fill="#191832" fill-rule="evenodd"/>
    <path id="Path_9298" data-name="Path 9298" d="M73.823,190.646l13.025,4.712c.565.273.642.409.642.9v2.1c0,.467-.078.642-.642.9l-13.025,4.731c-.292.117-.623.019-.623-.389V201.2c0-.565.175-.72.7-.9l8.995-2.979-8.995-3c-.526-.175-.7-.331-.7-.915v-2.336C73.2,190.627,73.531,190.549,73.823,190.646Z" transform="translate(17013.434 9511.4)" fill="#e83663" fill-rule="evenodd"/>
  </g>
</svg>
