<svg xmlns="http://www.w3.org/2000/svg" width="18.547" height="18.546" viewBox="0 0 18.547 18.546">
  <path id="Icon_awesome-linkedin-in" data-name="Icon awesome-linkedin-in" d="M4.151,18.547H.306V6.165H4.151ZM2.227,4.475A2.237,2.237,0,1,1,4.454,2.228,2.246,2.246,0,0,1,2.227,4.475ZM18.542,18.547H14.706V12.519c0-1.437-.029-3.279-2-3.279-2,0-2.305,1.561-2.305,3.175v6.131H6.56V6.165h3.688V7.854H10.3a4.04,4.04,0,0,1,3.638-2c3.891,0,4.607,2.563,4.607,5.891v6.8Z" transform="translate(0 0)" fill="#293341"/>
</svg>
