<svg xmlns="http://www.w3.org/2000/svg" width="8.297" height="12" viewBox="0 0 8.297 12">
  <path id="Union_10" data-name="Union 10" d="M3.86,11.843c-.263-.4-.565-.831-.884-1.285C1.581,8.571,0,6.318,0,4.219A4.189,4.189,0,0,1,4.148,0,4.189,4.189,0,0,1,8.3,4.219c0,2.1-1.582,4.352-2.978,6.34-.319.454-.62.883-.883,1.285a.342.342,0,0,1-.575,0ZM.691,4.219c0,1.874,1.58,4.124,2.849,5.931.212.3.417.593.608.874.192-.281.4-.572.608-.874C6.025,8.343,7.6,6.093,7.6,4.219A3.491,3.491,0,0,0,4.148.7,3.491,3.491,0,0,0,.691,4.219Zm1.383,0A2.075,2.075,0,1,1,4.148,6.328,2.094,2.094,0,0,1,2.074,4.219Zm.691,0A1.383,1.383,0,1,0,4.148,2.812,1.4,1.4,0,0,0,2.765,4.219Z" transform="translate(0.001)" fill="#fff"/>
</svg>
