<svg xmlns="http://www.w3.org/2000/svg" xmlns:xlink="http://www.w3.org/1999/xlink" width="176.29" height="41.415" viewBox="0 0 176.29 41.415">
  <defs>
    <linearGradient id="linear-gradient" y1="0.5" x2="1" y2="0.5" gradientUnits="objectBoundingBox">
      <stop offset="0" stop-color="#bed2e6"/>
      <stop offset="1" stop-color="#66829f"/>
    </linearGradient>
  </defs>
  <g id="Group_8917" data-name="Group 8917" transform="translate(-276.47 -6982.065)">
    <path id="Path_3455" data-name="Path 3455" d="M7.56-24.12v8.16h9.6v3.72H7.56v8.52h10.8V0H3V-27.84H18.36v3.72ZM49.04-22.4a9.884,9.884,0,0,1,4.66,1.08,7.8,7.8,0,0,1,3.24,3.2A10.381,10.381,0,0,1,58.12-13V0H53.6V-12.32a6.4,6.4,0,0,0-1.48-4.54,5.267,5.267,0,0,0-4.04-1.58,5.332,5.332,0,0,0-4.06,1.58,6.343,6.343,0,0,0-1.5,4.54V0H38V-12.32a6.4,6.4,0,0,0-1.48-4.54,5.267,5.267,0,0,0-4.04-1.58,5.332,5.332,0,0,0-4.06,1.58,6.343,6.343,0,0,0-1.5,4.54V0H22.36V-22.04h4.56v2.52a7.581,7.581,0,0,1,2.84-2.12,9,9,0,0,1,3.68-.76,9.8,9.8,0,0,1,4.72,1.12,7.656,7.656,0,0,1,3.2,3.24,7.392,7.392,0,0,1,3.12-3.18A9.227,9.227,0,0,1,49.04-22.4Zm17.84,3.6a9.267,9.267,0,0,1,3.16-2.56,9.651,9.651,0,0,1,4.52-1.04,10.073,10.073,0,0,1,5.26,1.42A9.975,9.975,0,0,1,83.56-17a12.343,12.343,0,0,1,1.36,5.88,12.7,12.7,0,0,1-1.36,5.94A10.164,10.164,0,0,1,79.82-1.1,9.864,9.864,0,0,1,74.56.36,9.563,9.563,0,0,1,70.08-.66a10.04,10.04,0,0,1-3.2-2.54V10.48H62.32V-22.04h4.56Zm13.4,7.68a7.868,7.868,0,0,0-.94-3.94,6.442,6.442,0,0,0-2.48-2.52,6.661,6.661,0,0,0-3.3-.86,6.471,6.471,0,0,0-3.26.88A6.552,6.552,0,0,0,67.82-15a7.981,7.981,0,0,0-.94,3.96,8.1,8.1,0,0,0,.94,3.98A6.52,6.52,0,0,0,70.3-4.48a6.471,6.471,0,0,0,3.26.88,6.432,6.432,0,0,0,3.3-.9,6.632,6.632,0,0,0,2.48-2.62A8.21,8.21,0,0,0,80.28-11.12Zm9.88-13.84a2.825,2.825,0,0,1-2.08-.84,2.825,2.825,0,0,1-.84-2.08,2.825,2.825,0,0,1,.84-2.08,2.825,2.825,0,0,1,2.08-.84,2.777,2.777,0,0,1,2.04.84,2.825,2.825,0,0,1,.84,2.08,2.825,2.825,0,0,1-.84,2.08A2.777,2.777,0,0,1,90.16-24.96Zm2.24,2.92V0H87.84V-22.04Zm8.96,3.2a7.161,7.161,0,0,1,2.66-2.62,7.868,7.868,0,0,1,3.94-.94v4.72H106.8a5.554,5.554,0,0,0-4.06,1.36q-1.38,1.36-1.38,4.72V0H96.8V-22.04h4.56Zm29.4,7.28a14.256,14.256,0,0,1-.16,2.24H113.76a6.116,6.116,0,0,0,1.96,4.24,6.187,6.187,0,0,0,4.32,1.6,5.336,5.336,0,0,0,5.2-3.08h4.92a9.928,9.928,0,0,1-3.62,4.98,10.621,10.621,0,0,1-6.5,1.94,11.256,11.256,0,0,1-5.66-1.42,10.1,10.1,0,0,1-3.92-4,12.2,12.2,0,0,1-1.42-5.98,12.489,12.489,0,0,1,1.38-5.98A9.705,9.705,0,0,1,114.3-21a11.547,11.547,0,0,1,5.74-1.4,11.225,11.225,0,0,1,5.56,1.36,9.61,9.61,0,0,1,3.8,3.82A11.5,11.5,0,0,1,130.76-11.56ZM126-13a5.189,5.189,0,0,0-1.8-4.04,6.435,6.435,0,0,0-4.36-1.52,5.857,5.857,0,0,0-4.04,1.5,6.268,6.268,0,0,0-2,4.06Z" transform="translate(322 7013)" fill="#222"/>
    <path id="Union_12" data-name="Union 12" d="M0,17.177H5.362A10.861,10.861,0,0,0,25.6,21.627h5.867A16.213,16.213,0,0,1,0,17.177Zm7.515.027H27c.029-.325.047-.654.047-.986a10.865,10.865,0,0,0-21.64-1.4H.034a16.212,16.212,0,1,1,32.074,4.45h-5.5v0H24.362A8.725,8.725,0,0,1,7.515,17.2Zm.056-2.386a8.725,8.725,0,0,1,17.225,0Z" transform="translate(277 6982.565)" stroke="rgba(0,0,0,0)" stroke-miterlimit="10" stroke-width="1" fill="url(#linear-gradient)"/>
  </g>
</svg>
