<svg xmlns="http://www.w3.org/2000/svg" width="27.507" height="17" viewBox="0 0 27.507 17">
  <g id="Group_58378" data-name="Group 58378" transform="translate(-998.468 -414)">
    <path id="Path_9254" data-name="Path 9254" d="M3263.546,2305.6h7.438v13.364h-7.437Z" transform="translate(-2255.043 -1889.78)" fill="#ff5f00"/>
    <path id="Path_9255" data-name="Path 9255" d="M2909.243,2248a8.522,8.522,0,0,1,3.235-6.682,8.5,8.5,0,1,0,0,13.364A8.487,8.487,0,0,1,2909.243,2248Z" transform="translate(-1900.268 -1825.503)" fill="#eb001b"/>
    <path id="Path_9256" data-name="Path 9256" d="M3412.911,2248a8.491,8.491,0,0,1-13.742,6.682,8.518,8.518,0,0,0,0-13.364,8.491,8.491,0,0,1,13.742,6.682Z" transform="translate(-2386.936 -1825.503)" fill="#f79e1b"/>
  </g>
</svg>
