<svg xmlns="http://www.w3.org/2000/svg" xmlns:xlink="http://www.w3.org/1999/xlink" width="30.428" height="30.435" viewBox="0 0 30.428 30.435">
  <defs>
    <linearGradient id="linear-gradient" y1="0.5" x2="1" y2="0.5" gradientUnits="objectBoundingBox">
      <stop offset="0" stop-color="#bed2e6"/>
      <stop offset="1" stop-color="#66829f"/>
    </linearGradient>
  </defs>
  <path id="Union_11" data-name="Union 11" d="M0,15.588H4.865a9.855,9.855,0,0,0,18.367,4.038h5.324A14.711,14.711,0,0,1,0,15.588Zm6.819.024H24.5c.027-.3.043-.593.043-.895A9.859,9.859,0,0,0,4.909,13.447H.031a14.711,14.711,0,1,1,29.1,4.038H24.148v0H22.106A7.917,7.917,0,0,1,6.819,15.612Zm.051-2.165a7.917,7.917,0,0,1,15.63,0Z" transform="translate(0.53 0.5)" stroke="rgba(0,0,0,0)" stroke-width="1" fill="url(#linear-gradient)"/>
</svg>
