<svg xmlns="http://www.w3.org/2000/svg" xmlns:xlink="http://www.w3.org/1999/xlink" width="13.842" height="13.842" viewBox="0 0 13.842 13.842">
  <defs>
    <clipPath id="clip-path">
      <path id="path183" d="M0-682.665H13.842v13.842H0Z" transform="translate(0 682.665)" fill="#293341"/>
    </clipPath>
  </defs>
  <g id="g179" transform="translate(0 0)">
    <g id="g181" transform="translate(0 0)" clip-path="url(#clip-path)">
      <g id="g187" transform="translate(0 0.006)">
        <path id="path189" d="M-182.487-80.792h-13.436a.2.2,0,0,1-.2-.152.2.2,0,0,1,.1-.228l2.937-1.628a.2.2,0,0,1,.276.079.2.2,0,0,1-.079.276l-2.251,1.248h11.868l-5.639-3.126a.6.6,0,0,0-.59,0l-2.551,1.414a.2.2,0,0,1-.276-.079.2.2,0,0,1,.079-.276l2.551-1.414a1.008,1.008,0,0,1,.983,0l6.325,3.506a.2.2,0,0,1,.1.228A.2.2,0,0,1-182.487-80.792Z" transform="translate(196.126 84.806)" fill="#293341"/>
      </g>
      <g id="g191" transform="translate(0 3.614)">
        <path id="path193" d="M-9.8-10H3.639a.2.2,0,0,1,.2.2v.608a.812.812,0,0,1-.811.811H-9.189A.812.812,0,0,1-10-9.189V-9.8A.2.2,0,0,1-9.8-10Zm13.234.406H-9.595v.406a.406.406,0,0,0,.406.406H3.031a.406.406,0,0,0,.406-.406Z" transform="translate(10 10)" fill="#293341"/>
      </g>
      <g id="g195" transform="translate(0 12.22)">
        <path id="path197" d="M-22.86-10h12.9a.474.474,0,0,1,.473.473v.676a.474.474,0,0,1-.473.473h-12.9a.474.474,0,0,1-.473-.473v-.676A.474.474,0,0,1-22.86-10Zm12.9,1.217A.068.068,0,0,0-9.9-8.851v-.676a.068.068,0,0,0-.068-.068h-12.9a.068.068,0,0,0-.068.068v.676a.068.068,0,0,0,.068.068Z" transform="translate(23.333 10)" fill="#293341"/>
      </g>
      <g id="g199" transform="translate(4.598 6.405)">
        <path id="path201" d="M-216.844-114.584a2.326,2.326,0,0,1,2.323,2.323,2.326,2.326,0,0,1-2.323,2.323,2.326,2.326,0,0,1-2.323-2.323A2.326,2.326,0,0,1-216.844-114.584Zm0,4.241a1.92,1.92,0,0,0,1.918-1.918,1.92,1.92,0,0,0-1.918-1.918,1.92,1.92,0,0,0-1.918,1.918A1.92,1.92,0,0,0-216.844-110.343Z" transform="translate(219.167 114.584)" fill="#293341"/>
      </g>
      <g id="g203" transform="translate(6.718 7.101)">
        <path id="path205" d="M-9.8-6.746a.2.2,0,0,1-.2-.2V-9.8a.2.2,0,0,1,.2-.2.2.2,0,0,1,.2.2v2.848A.2.2,0,0,1-9.8-6.746Z" transform="translate(10 10)" fill="#293341"/>
      </g>
      <g id="g207" transform="translate(6.102 7.416)">
        <path id="path209" d="M-8.935-96.265h-.493A.6.6,0,0,1-10-96.884a.2.2,0,0,1,.2-.2.2.2,0,0,1,.2.2.2.2,0,0,0,.167.213h.493a.2.2,0,0,0,.167-.213v-.277a.2.2,0,0,0-.167-.213h-.493A.6.6,0,0,1-10-97.993v-.277a.6.6,0,0,1,.572-.619h.493a.6.6,0,0,1,.572.619.2.2,0,0,1-.2.2.2.2,0,0,1-.2-.2.2.2,0,0,0-.167-.213h-.493a.2.2,0,0,0-.167.213v.277a.2.2,0,0,0,.167.213h.493a.6.6,0,0,1,.572.619v.277A.6.6,0,0,1-8.935-96.265Z" transform="translate(10 98.889)" fill="#293341"/>
      </g>
      <g id="g211" transform="translate(5.988 1.23)">
        <path id="path213" d="M-81.067-46a.934.934,0,0,1,.933.933.934.934,0,0,1-.933.933A.934.934,0,0,1-82-45.067.934.934,0,0,1-81.067-46Zm0,1.46a.528.528,0,0,0,.527-.527.528.528,0,0,0-.527-.527.528.528,0,0,0-.527.527A.528.528,0,0,0-81.067-44.54Z" transform="translate(82 46)" fill="#293341"/>
      </g>
      <g id="g215" transform="translate(9.374 11.078)">
        <path id="path217" d="M-166.881-64.755h-3.251a.2.2,0,0,1-.18-.11.2.2,0,0,1,.015-.21l.811-1.142a.2.2,0,0,1,.165-.085h1.629a.2.2,0,0,1,.165.085l.811,1.142a.2.2,0,0,1,.015.21A.2.2,0,0,1-166.881-64.755Zm-2.858-.406h2.465l-.523-.736h-1.42Z" transform="translate(170.334 66.302)" fill="#293341"/>
      </g>
      <g id="g219" transform="translate(9.374 4.831)">
        <path id="path221" d="M-170.131-10h3.251a.2.2,0,0,1,.18.11.2.2,0,0,1-.015.21l-.811,1.142a.2.2,0,0,1-.165.085h-1.629a.2.2,0,0,1-.165-.085L-170.3-9.68a.2.2,0,0,1-.015-.21A.2.2,0,0,1-170.131-10Zm2.858.406h-2.465l.523.736h1.42Z" transform="translate(170.334 10)" fill="#293341"/>
      </g>
      <g id="g223" transform="translate(10.185 5.973)">
        <path id="path225" d="M-8.168-128.974H-9.8a.2.2,0,0,1-.2-.2v-1.635a.2.2,0,0,1,.2-.2.2.2,0,0,1,.2.2v1.432h1.223v-4.7H-9.594v2.321a.2.2,0,0,1-.2.2.2.2,0,0,1-.2-.2v-2.524a.2.2,0,0,1,.2-.2h1.629a.2.2,0,0,1,.2.2v5.105A.2.2,0,0,1-8.168-128.974Z" transform="translate(10 134.485)" fill="#293341"/>
      </g>
      <g id="g227" transform="translate(0.811 11.078)">
        <path id="path229" d="M-166.881-64.755h-3.251a.2.2,0,0,1-.18-.11.2.2,0,0,1,.015-.21l.811-1.142a.2.2,0,0,1,.165-.085h1.629a.2.2,0,0,1,.165.085l.811,1.142a.2.2,0,0,1,.015.21A.2.2,0,0,1-166.881-64.755Zm-2.858-.406h2.465l-.523-.736h-1.42Z" transform="translate(170.334 66.302)" fill="#293341"/>
      </g>
      <g id="g231" transform="translate(0.811 4.831)">
        <path id="path233" d="M-170.131-10h3.251a.2.2,0,0,1,.18.11.2.2,0,0,1-.015.21l-.811,1.142a.2.2,0,0,1-.165.085h-1.629a.2.2,0,0,1-.165-.085L-170.3-9.68a.2.2,0,0,1-.015-.21A.2.2,0,0,1-170.131-10Zm2.858.406h-2.465l.523.736h1.42Z" transform="translate(170.334 10)" fill="#293341"/>
      </g>
      <path id="path235" d="M81.831-382.588H80.2a.2.2,0,0,1-.2-.2V-387.9a.2.2,0,0,1,.2-.2h1.629a.2.2,0,0,1,.2.2v5.105A.2.2,0,0,1,81.831-382.588Zm-1.426-.406h1.223v-4.7H80.405Z" transform="translate(-78.378 394.072)" fill="#293341"/>
    </g>
  </g>
</svg>
