<svg xmlns="http://www.w3.org/2000/svg" width="20.453" height="13.221" viewBox="0 0 20.453 13.221">
  <path id="Path_8302" data-name="Path 8302" d="M20.139,97.606c-2.42-2.925-6.084-5.74-9.913-5.74S2.733,94.683.314,97.606a1.369,1.369,0,0,0,0,1.744A20.5,20.5,0,0,0,3.9,102.743c4.288,3.122,8.356,3.129,12.654,0a20.5,20.5,0,0,0,3.586-3.393A1.369,1.369,0,0,0,20.139,97.606ZM10.227,94.07a4.408,4.408,0,1,1-4.408,4.408A4.413,4.413,0,0,1,10.227,94.07Z" transform="translate(0 -91.866)" fill="#66829f"/>
</svg>
