<svg xmlns="http://www.w3.org/2000/svg" width="14.934" height="12.059" viewBox="0 0 14.934 12.059">
  <g id="Group_19774" data-name="Group 19774" transform="translate(-419.533 -716)">
    <path id="Path_9246" data-name="Path 9246" d="M12.717,49.463c-.371,0-.363.667,0,.663S13.08,49.459,12.717,49.463Z" transform="translate(409.347 677.22)" fill="#293341"/>
    <path id="Path_9247" data-name="Path 9247" d="M13.7,36.6H9a2.511,2.511,0,0,0-3.569-2.361v-.627a.267.267,0,1,0-.533,0v.964a2.507,2.507,0,1,0,4.025,2.557H13.7a.267.267,0,1,0,0-.533Zm-5.811,1.3a1.976,1.976,0,1,1,.424-2.15A1.974,1.974,0,0,1,7.891,37.905Z" transform="translate(415.55 689.037)" fill="#293341"/>
    <path id="Path_9248" data-name="Path 9248" d="M21.157,14.489H20.6c0-.527,0-3.884,0-4.328a.769.769,0,0,0-.768-.769H8.905a1.509,1.509,0,0,0-1.5,1.5V14.98a.267.267,0,1,0,.533,0V12.042a1.5,1.5,0,0,0,.853.352c.166,0,11.126.009,11.285.006v2.09h-1.5a1.306,1.306,0,1,0,0,2.612h1.5v1.7a.238.238,0,0,1-.237.237H17.275a.267.267,0,1,0,0,.533h2.559a.771.771,0,0,0,.77-.77V17.1h.552a.266.266,0,0,0,.267-.267V14.756a.266.266,0,0,0-.267-.267Zm-12.1-2.623V11.3a.143.143,0,0,1,.141-.141h.712a.267.267,0,1,0,0-.533H9.195a.675.675,0,0,0-.675.674v.483a.97.97,0,0,1,.385-1.86h10.93a.236.236,0,0,1,.235.235v.468h-9.1a.267.267,0,1,0,0,.533h9.1v.7Zm11.837,4.7H18.575a.773.773,0,1,1,0-1.546H20.89Z" transform="translate(413.043 706.607)" fill="#293341"/>
    <path id="Path_9249" data-name="Path 9249" d="M48.456,32.469a.251.251,0,1,0,.251.251.251.251,0,0,0-.251-.251Z" transform="translate(383.117 689.683)" fill="#293341"/>
    <path id="Path_9250" data-name="Path 9250" d="M12.717,38.316c-.371,0-.363.667,0,.663S13.08,38.313,12.717,38.316Z" transform="translate(409.347 685.395)" fill="#293341"/>
    <path id="Path_9251" data-name="Path 9251" d="M7.054,44.133h-.13a.267.267,0,1,0,0,.533h.13a.267.267,0,1,0,0-.533Z" transform="translate(413.588 681.129)" fill="#293341"/>
    <path id="Path_9252" data-name="Path 9252" d="M18.2,44.133h-.13a.267.267,0,1,0,0,.533h.13a.267.267,0,1,0,0-.533Z" transform="translate(405.414 681.129)" fill="#293341"/>
    <path id="Path_9253" data-name="Path 9253" d="M11.886,41.765a.266.266,0,0,0-.267.267v.6l-.224.2a.268.268,0,0,0,.178.465c.148.02.385-.271.491-.348a.266.266,0,0,0,.089-.2v-.721a.266.266,0,0,0-.267-.267Z" transform="translate(410.177 682.866)" fill="#293341"/>
  </g>
</svg>
