<svg id="paytm-icon" xmlns="http://www.w3.org/2000/svg" width="30.283" height="9.492" viewBox="0 0 30.283 9.492">
  <path id="Path_9278" data-name="Path 9278" d="M82.93,2.8a2.02,2.02,0,0,0-1.9-1.35h-.02a2.011,2.011,0,0,0-1.454.621A2.011,2.011,0,0,0,78.1,1.449h-.017a2.014,2.014,0,0,0-1.316.488V1.784a.3.3,0,0,0-.3-.276h-1.35a.3.3,0,0,0-.3.3V9.135a.3.3,0,0,0,.3.3h1.35a.3.3,0,0,0,.293-.256V3.916a.347.347,0,0,1,0-.052.491.491,0,0,1,.466-.451h.249a.5.5,0,0,1,.283.111.494.494,0,0,1,.182.394l0,5.234a.3.3,0,0,0,.3.3H79.6a.3.3,0,0,0,.3-.283V3.913a.494.494,0,0,1,.219-.421.563.563,0,0,1,.249-.084h.249a.492.492,0,0,1,.468.505l0,5.229a.3.3,0,0,0,.3.3h1.35a.3.3,0,0,0,.3-.278V3.428a1.792,1.792,0,0,0-.1-.628ZM73.792,1.528h-.771V.271A.272.272,0,0,0,72.748,0,.368.368,0,0,0,72.7,0c-.855.234-.685,1.419-2.247,1.52H70.3a.306.306,0,0,0-.067.007h0A.3.3,0,0,0,70,1.826v1.35a.3.3,0,0,0,.3.3h.813l0,5.722a.3.3,0,0,0,.3.3H72.74a.3.3,0,0,0,.3-.3V3.475h.757a.3.3,0,0,0,.3-.3V1.826a.3.3,0,0,0-.3-.3Z" transform="translate(-52.75)" fill="#00baf2"/>
  <path id="Path_9279" data-name="Path 9279" d="M16.188,6.192h-1.35a.3.3,0,0,0-.3.3V9.283a.315.315,0,0,1-.315.31h-.564a.317.317,0,0,1-.318-.315l0-2.787a.3.3,0,0,0-.3-.3h-1.35a.3.3,0,0,0-.3.3V9.549a1.917,1.917,0,0,0,1.991,1.991s.872,0,.9,0a.315.315,0,0,1,0,.626.072.072,0,0,0-.022,0l-1.974.007a.3.3,0,0,0-.3.3v1.348a.3.3,0,0,0,.3.3h2.206a1.915,1.915,0,0,0,1.991-1.989V6.491a.294.294,0,0,0-.3-.3ZM8.509,6.2H6.636a.291.291,0,0,0-.3.278V7.745a.31.31,0,0,0,.318.3H8.438a.313.313,0,0,1,.269.286V8.5a.3.3,0,0,1-.261.276H7.563a1.873,1.873,0,0,0-2.011,1.875v1.57a1.767,1.767,0,0,0,1.885,1.863H9.884a.771.771,0,0,0,.8-.742V8.225c0-1.242-.641-2.026-2.171-2.026Zm.214,5.633v.212a.3.3,0,0,1,0,.049.3.3,0,0,1-.012.044.316.316,0,0,1-.3.2H7.844a.309.309,0,0,1-.318-.3V10.889a.308.308,0,0,1,.318-.3h.562a.309.309,0,0,1,.318.3v.941ZM3.243,6.19H.293A.294.294,0,0,0,0,6.483v7.334a.288.288,0,0,0,.274.3H1.649a.3.3,0,0,0,.3-.3l0-2.05H3.243A1.752,1.752,0,0,0,5.076,9.931v-1.9A1.756,1.756,0,0,0,3.243,6.19ZM3.125,8.664V9.5a.317.317,0,0,1-.315.318H1.954V8.147h.855a.314.314,0,0,1,.315.315v.2Z" transform="translate(0 -4.665)" fill="#20336b"/>
</svg>
