<svg xmlns="http://www.w3.org/2000/svg" width="46.184" height="46.184" viewBox="0 0 46.184 46.184">
  <path id="path1431" d="M-396.133-181.9l-13.7,4.686m-9.268,17.747,16.139-5.609m2.4-8.2-19.419,6.643m0-15.953,24.921-8.31m6.892-4h-19.007m-2.667,0H-421.1a7.273,7.273,0,0,1,1.386,4c0,5.621-4.722,4.756-4.722,11.84v5.742m0,2.667v17.985l28.306-9.684m.038-24.631v28.343a7.92,7.92,0,0,0,7.92,7.92,7.92,7.92,0,0,0,7.92-7.92v-10.735m0-2.667v-14.942m-9.622,0a1.7,1.7,0,0,0,1.7,1.7,1.7,1.7,0,0,0,1.7-1.7,1.7,1.7,0,0,0-1.7-1.7A1.7,1.7,0,0,0-389.87-186.971Zm1.7,7.92a7.92,7.92,0,0,1-7.92-7.92,7.92,7.92,0,0,1,7.92-7.92,7.92,7.92,0,0,1,7.92,7.92,7.924,7.924,0,0,1-5.642,7.588" transform="translate(425.432 195.892)" fill="none" stroke="#000" stroke-linecap="round" stroke-linejoin="round" stroke-miterlimit="10" stroke-width="2"/>
</svg>
