<svg xmlns="http://www.w3.org/2000/svg" width="15.089" height="15.088" viewBox="0 0 15.089 15.088">
  <g id="processing-time" transform="translate(0)">
    <path id="Path_8303" data-name="Path 8303" d="M10.029,15.06a1.225,1.225,0,0,1-.612-.164L5.767,12.79a1.23,1.23,0,0,1-.449-1.678l.526-.912a3.088,3.088,0,0,1,2.43-1.285.165.165,0,0,0,.126-.22,3.088,3.088,0,0,1-.1-2.749l.526-.912a1.231,1.231,0,0,1,1.677-.45l3.65,2.105A1.23,1.23,0,0,1,14.6,8.367l-.526.912a3.088,3.088,0,0,1-2.431,1.286.164.164,0,0,0-.126.219,3.088,3.088,0,0,1,.1,2.75l-.526.912a1.228,1.228,0,0,1-1.064.613Zm-.14-9.587a.175.175,0,0,0-.152.088l-.526.912a2.17,2.17,0,0,0,.161,1.814A1.219,1.219,0,0,1,8.4,9.96a2.171,2.171,0,0,0-1.651.767l-.526.912a.175.175,0,0,0,.064.24l3.65,2.105a.177.177,0,0,0,.239-.065l.526-.912a2.17,2.17,0,0,0-.161-1.814,1.218,1.218,0,0,1,.966-1.672,2.176,2.176,0,0,0,1.651-.768l.526-.912a.175.175,0,0,0-.064-.24L9.975,5.5a.178.178,0,0,0-.087-.023Z" transform="translate(-2.413 -2.196)" fill="#66829f"/>
    <path id="Path_8304" data-name="Path 8304" d="M16.408,9.322a.526.526,0,0,1-.526-.526A6.492,6.492,0,0,0,4.8,4.2a6.616,6.616,0,0,0-.6.7.526.526,0,1,1-.842-.632,7.885,7.885,0,0,1,.7-.807A7.545,7.545,0,0,1,16.935,8.8.526.526,0,0,1,16.408,9.322Z" transform="translate(-1.845 -1.251)" fill="#66829f"/>
    <path id="Path_8305" data-name="Path 8305" d="M8.795,19.321A7.544,7.544,0,0,1,1.25,11.775a.526.526,0,0,1,1.053,0A6.493,6.493,0,0,0,13.99,15.671a.527.527,0,0,1,.842.632,7.781,7.781,0,0,1-.7.808,7.5,7.5,0,0,1-5.335,2.211Z" transform="translate(-1.25 -4.232)" fill="#66829f"/>
    <path id="Path_8306" data-name="Path 8306" d="M19.418,19.945a.526.526,0,0,1-.526-.526V17.96H17.432a.526.526,0,0,1,0-1.053h1.985a.526.526,0,0,1,.526.526v1.985A.526.526,0,0,1,19.418,19.945Z" transform="translate(-5.918 -5.919)" fill="#66829f"/>
    <path id="Path_8307" data-name="Path 8307" d="M5.276,5.8H3.291a.526.526,0,0,1-.526-.526V3.291a.526.526,0,1,1,1.053,0V4.75H5.276a.526.526,0,1,1,0,1.053Z" transform="translate(-1.701 -1.703)" fill="#66829f"/>
  </g>
</svg>
