<svg xmlns="http://www.w3.org/2000/svg" width="12.554" height="8.373" viewBox="0 0 12.554 8.373">
  <path id="Icon_ionic-ios-arrow-round-forward" data-name="Icon ionic-ios-arrow-round-forward" d="M15.881,11.412a.57.57,0,0,0,0,.8l2.651,2.656H8.438a.567.567,0,0,0,0,1.134H18.523l-2.651,2.656a.574.574,0,0,0,0,.8.565.565,0,0,0,.8,0l3.593-3.619h0a.637.637,0,0,0,.118-.179.541.541,0,0,0,.044-.218.568.568,0,0,0-.161-.4l-3.593-3.619A.555.555,0,0,0,15.881,11.412Z" transform="translate(-7.875 -11.252)"/>
</svg>
