<svg xmlns="http://www.w3.org/2000/svg" width="18.813" height="17.741" viewBox="0 0 18.813 17.741">
  <path id="Icon_ionic-md-arrow-round-forward" data-name="Icon ionic-md-arrow-round-forward" d="M13.487,23.57,6.106,16.408a1.628,1.628,0,0,1-.481-1.2V15.19a1.628,1.628,0,0,1,.481-1.2l7.381-7.162a1.58,1.58,0,0,1,2.309,0,1.768,1.768,0,0,1,0,2.416L11.36,13.49H22.8a1.712,1.712,0,0,1,.005,3.42H11.365L15.8,21.154a1.768,1.768,0,0,1,0,2.416A1.587,1.587,0,0,1,13.487,23.57Z" transform="translate(-5.625 -6.33)" fill="#eb3e32"/>
</svg>
