<svg xmlns="http://www.w3.org/2000/svg" width="24" height="30.3" viewBox="0 0 24 30.3">
  <g id="security_1_" data-name="security (1)" transform="translate(-4 -0.936)">
    <path id="Path_9238" data-name="Path 9238" d="M16,.936,4,5.3V15.856A13.1,13.1,0,0,0,9.381,26.422L16,31.236l6.619-4.814A13.1,13.1,0,0,0,28,15.856V5.3Zm10,14.92a11.1,11.1,0,0,1-4.557,8.949L16,28.764l-5.443-3.959A11.1,11.1,0,0,1,6,15.856V6.7L16,3.064,26,6.7Z" fill="#66829f"/>
    <path id="Path_9239" data-name="Path 9239" d="M11.707,13.543l-1.414,1.414,4.457,4.457,6.957-6.957-1.414-1.414L14.75,16.586Z" fill="#66829f"/>
  </g>
</svg>
