<svg id="Icon_feather-shopping-cart" data-name="Icon feather-shopping-cart" xmlns="http://www.w3.org/2000/svg" width="18.836" height="18.05" viewBox="0 0 18.836 18.05">
  <path id="Path_9303" data-name="Path 9303" d="M12.07,28.5a1.57,1.57,0,1,1-1.57,1.57A1.571,1.571,0,0,1,12.07,28.5Z" transform="translate(-5.006 -13.589)"/>
  <path id="Path_9304" data-name="Path 9304" d="M28.57,28.5A1.57,1.57,0,1,1,27,30.07,1.571,1.571,0,0,1,28.57,28.5Z" transform="translate(-12.874 -13.589)"/>
  <path id="Path_9305" data-name="Path 9305" d="M15.256,13.342H7.6a2.352,2.352,0,0,1-2.346-1.9L3.947,4.9q-.008-.032-.013-.066L3.281,1.57H.785A.785.785,0,0,1,.785,0H3.924a.785.785,0,0,1,.77.631l.659,3.293h12.7a.785.785,0,0,1,.771.932L17.566,11.44v.006A2.352,2.352,0,0,1,15.256,13.342ZM7.6,11.772h7.659a.784.784,0,0,0,.769-.629L17.1,5.494H5.667L6.8,11.139a.784.784,0,0,0,.785.633Z" transform="translate(0 0)"/>
</svg>
