<svg xmlns="http://www.w3.org/2000/svg" width="17.418" height="21.717" viewBox="0 0 17.418 21.717">
  <g id="Group_19607" data-name="Group 19607" transform="translate(-17073.238 -10414.11)">
    <path id="Path_9281" data-name="Path 9281" d="M90.708,446.274q.928-.958,1.913-1.919a.048.048,0,0,0,0-.066,9.829,9.829,0,0,1-2.289-5.089,9.545,9.545,0,0,1,.428-4.454,9.788,9.788,0,0,1,15.56-4.346,10.119,10.119,0,0,1,1.064,1.02.033.033,0,0,1,0,.045l-2.107,2.115a.053.053,0,0,0,0,.073,9.736,9.736,0,0,1,2.353,5.687,9.483,9.483,0,0,1-.818,4.657,9.693,9.693,0,0,1-7.275,5.689,9.41,9.41,0,0,1-1.254.131,9.676,9.676,0,0,1-5.669-1.521,9.393,9.393,0,0,1-1.016-.745,12.607,12.607,0,0,1-1.081-1.027.052.052,0,0,1,0-.069.79.79,0,0,1,.095-.1Q90.688,446.294,90.708,446.274Zm10.7-14.943a6.725,6.725,0,0,1,2.836,1.344.043.043,0,0,0,.057,0l1.19-1.19a.033.033,0,0,0,0-.049,8.48,8.48,0,0,0-4.276-1.907,8.182,8.182,0,0,0-1.257-.079,8.325,8.325,0,0,0-4.981,1.68,8.179,8.179,0,0,0-.948.829,8.3,8.3,0,0,0-2.41,5.307,7.928,7.928,0,0,0,0,1.26,8.489,8.489,0,0,0,1.965,4.826.029.029,0,0,0,.044,0l1.163-1.163a.057.057,0,0,0,.005-.076,6.606,6.606,0,0,1-1.377-5.353,6.539,6.539,0,0,1,.32-1.217,6.347,6.347,0,0,1,1.1-1.9,6.554,6.554,0,0,1,5.321-2.443A6.414,6.414,0,0,1,101.4,431.332Zm-9,15.14a.017.017,0,0,0,0,.013.019.019,0,0,0,.007.013,8.382,8.382,0,0,0,5.97,1.977,8.09,8.09,0,0,0,1.248-.163,8.449,8.449,0,0,0,6.58-6.894,8.076,8.076,0,0,0,.108-1.255,8.472,8.472,0,0,0-1.981-5.552.049.049,0,0,0-.072,0l-1.148,1.139a.054.054,0,0,0,0,.071,6.76,6.76,0,0,1,1.481,4.013,6.7,6.7,0,0,1-4.708,6.617,6.5,6.5,0,0,1-1.233.255,6.7,6.7,0,0,1-4.974-1.426.059.059,0,0,0-.078,0Z" transform="translate(16983 9986)" fill="#00d1c1"/>
  </g>
</svg>
