<svg xmlns="http://www.w3.org/2000/svg" width="12.614" height="12.614" viewBox="0 0 12.614 12.614">
  <path id="Icon_ionic-ios-checkmark-circle" data-name="Icon ionic-ios-checkmark-circle" d="M9.682,3.375a6.307,6.307,0,1,0,6.307,6.307A6.306,6.306,0,0,0,9.682,3.375Zm3.229,4.564L8.857,12.011h0a.548.548,0,0,1-.352.167A.531.531,0,0,1,8.148,12l-1.7-1.7a.121.121,0,0,1,0-.173l.54-.54a.117.117,0,0,1,.17,0l1.346,1.346,3.7-3.727a.12.12,0,0,1,.085-.036h0a.11.11,0,0,1,.085.036l.531.549A.12.12,0,0,1,12.912,7.939Z" transform="translate(-3.375 -3.375)" fill="#008d58"/>
</svg>
