<svg xmlns="http://www.w3.org/2000/svg" width="11.922" height="22.373" viewBox="0 0 11.922 22.373">
  <path id="Path_6" data-name="Path 6" d="M-412.3,130.315v9.964h-4.336v-9.933h-3.641v-4.08h3.615c0-.909-.031-1.761.009-2.609a11.236,11.236,0,0,1,.249-2.28,4.418,4.418,0,0,1,4.928-3.455c1.025.074,2.055.092,3.122.138v3.382c-.528,0-1.047-.028-1.562.009a4.742,4.742,0,0,0-1.277.225,1.507,1.507,0,0,0-1.083,1.358c-.047,1.043-.012,2.089-.012,3.2h3.835l-.644,4.078Z" transform="translate(420.276 -117.905)" fill="#fff"/>
</svg>
