<svg xmlns="http://www.w3.org/2000/svg" width="19.659" height="19.601" viewBox="0 0 19.659 19.601">
  <g id="Group_14" data-name="Group 14" transform="translate(-1444 -2994)">
    <g id="Group_13" data-name="Group 13" transform="translate(1444 2994)">
      <path id="Path_8" data-name="Path 8" d="M12.329-150.121c-1.436,0-2.871,0-4.307,0a5.292,5.292,0,0,1-5.5-5.535q0-4.383,0-8.766a5.282,5.282,0,0,1,5.278-5.29q4.484-.011,8.969,0a5.291,5.291,0,0,1,5.385,5.3q.048,4.484,0,8.969a5.289,5.289,0,0,1-5.366,5.321C15.3-150.108,13.816-150.121,12.329-150.121Zm.013-1.729q2.127,0,4.254,0a3.607,3.607,0,0,0,3.822-3.8q.009-4.279,0-8.559a3.608,3.608,0,0,0-3.79-3.784q-4.28-.009-8.559,0a3.625,3.625,0,0,0-3.829,3.8q-.013,4.28,0,8.559a3.617,3.617,0,0,0,3.8,3.781C9.472-151.846,10.907-151.85,12.342-151.85Z" transform="translate(-2.522 169.717)" fill="#fff"/>
      <path id="Path_9" data-name="Path 9" d="M52.084-115.149a5.325,5.325,0,0,1-5.355-5.332,5.361,5.361,0,0,1,5.337-5.363,5.436,5.436,0,0,1,5.387,5.345A5.4,5.4,0,0,1,52.084-115.149Zm3.481-5.348a3.524,3.524,0,0,0-3.49-3.491,3.534,3.534,0,0,0-3.525,3.511,3.525,3.525,0,0,0,3.52,3.513A3.517,3.517,0,0,0,55.565-120.5Z" transform="translate(-42.247 130.292)" fill="#fff"/>
      <path id="Path_10" data-name="Path 10" d="M141.052-133.677a1.132,1.132,0,0,1-1.128-1.124,1.131,1.131,0,0,1,1.159-1.141,1.166,1.166,0,0,1,1.137,1.123A1.16,1.16,0,0,1,141.052-133.677Z" transform="translate(-125.995 139.366)" fill="#fff"/>
    </g>
  </g>
</svg>
