<svg xmlns="http://www.w3.org/2000/svg" width="14.679" height="10.177" viewBox="0 0 14.679 10.177">
  <g id="delivery" transform="translate(0 -78.521)">
    <g id="Group_19275" data-name="Group 19275" transform="translate(9.236 84.997)">
      <g id="Group_19274" data-name="Group 19274" transform="translate(0 0)">
        <path id="Path_9230" data-name="Path 9230" d="M324,304.4a1.85,1.85,0,1,0,1.85,1.85A1.852,1.852,0,0,0,324,304.4Zm0,2.775a.925.925,0,1,1,.925-.925A.926.926,0,0,1,324,307.178Z" transform="translate(-322.151 -304.403)" fill="#ff5c14"/>
      </g>
    </g>
    <g id="Group_19277" data-name="Group 19277" transform="translate(2.914 84.997)">
      <g id="Group_19276" data-name="Group 19276" transform="translate(0 0)">
        <path id="Path_9231" data-name="Path 9231" d="M103.5,304.4a1.85,1.85,0,1,0,1.85,1.85A1.852,1.852,0,0,0,103.5,304.4Zm0,2.775a.925.925,0,1,1,.925-.925A.926.926,0,0,1,103.5,307.178Z" transform="translate(-101.647 -304.403)" fill="#ff5c14"/>
      </g>
    </g>
    <g id="Group_19279" data-name="Group 19279" transform="translate(9.483 79.446)">
      <g id="Group_19278" data-name="Group 19278" transform="translate(0 0)">
        <path id="Path_9232" data-name="Path 9232" d="M333.606,111.045a.463.463,0,0,0-.413-.255h-2.436v.925h2.151l1.26,2.505.827-.416Z" transform="translate(-330.756 -110.79)" fill="#ff5c14"/>
      </g>
    </g>
    <g id="Group_19281" data-name="Group 19281" transform="translate(6.199 86.4)">
      <g id="Group_19280" data-name="Group 19280">
        <rect id="Rectangle_2773" data-name="Rectangle 2773" width="3.5" height="0.925" fill="#ff5c14"/>
      </g>
    </g>
    <g id="Group_19283" data-name="Group 19283" transform="translate(1.311 86.4)">
      <g id="Group_19282" data-name="Group 19282">
        <path id="Path_9233" data-name="Path 9233" d="M47.781,353.345h-1.6a.463.463,0,1,0,0,.925h1.6a.463.463,0,1,0,0-.925Z" transform="translate(-45.715 -353.345)" fill="#ff5c14"/>
      </g>
    </g>
    <g id="Group_19285" data-name="Group 19285" transform="translate(1.311 78.521)">
      <g id="Group_19284" data-name="Group 19284" transform="translate(0 0)">
        <path id="Path_9234" data-name="Path 9234" d="M58.986,83.572l-.91-1.172a.462.462,0,0,0-.365-.179H54.35V78.984a.463.463,0,0,0-.463-.463h-7.71a.463.463,0,1,0,0,.925h7.247v3.238a.463.463,0,0,0,.463.463h3.6l.674.868V86.4h-1.28a.463.463,0,1,0,0,.925h1.742a.463.463,0,0,0,.463-.463V83.856A.463.463,0,0,0,58.986,83.572Z" transform="translate(-45.715 -78.521)" fill="#ff5c14"/>
      </g>
    </g>
    <g id="Group_19287" data-name="Group 19287" transform="translate(0.756 84.057)">
      <g id="Group_19286" data-name="Group 19286">
        <path id="Path_9235" data-name="Path 9235" d="M28.943,271.6H26.816a.463.463,0,0,0,0,.925h2.128a.463.463,0,0,0,0-.925Z" transform="translate(-26.353 -271.597)" fill="#ff5c14"/>
      </g>
    </g>
    <g id="Group_19289" data-name="Group 19289" transform="translate(0 82.237)">
      <g id="Group_19288" data-name="Group 19288" transform="translate(0 0)">
        <path id="Path_9236" data-name="Path 9236" d="M4.41,208.134H.463a.463.463,0,0,0,0,.925H4.41a.463.463,0,0,0,0-.925Z" transform="translate(0 -208.134)" fill="#ff5c14"/>
      </g>
    </g>
    <g id="Group_19291" data-name="Group 19291" transform="translate(0.756 80.418)">
      <g id="Group_19290" data-name="Group 19290" transform="translate(0 0)">
        <path id="Path_9237" data-name="Path 9237" d="M30.763,144.672H26.816a.463.463,0,0,0,0,.925h3.947a.463.463,0,0,0,0-.925Z" transform="translate(-26.353 -144.672)" fill="#ff5c14"/>
      </g>
    </g>
  </g>
</svg>
