<svg xmlns="http://www.w3.org/2000/svg" width="22.835" height="18.546" viewBox="0 0 22.835 18.546">
  <path id="Icon_awesome-twitter" data-name="Icon awesome-twitter" d="M20.488,8c.014.2.014.406.014.609A13.225,13.225,0,0,1,7.187,21.927,13.226,13.226,0,0,1,0,19.826a9.682,9.682,0,0,0,1.13.058,9.373,9.373,0,0,0,5.81-2,4.688,4.688,0,0,1-4.376-3.246,5.9,5.9,0,0,0,.884.072,4.95,4.95,0,0,0,1.232-.159A4.681,4.681,0,0,1,.927,9.959V9.9a4.713,4.713,0,0,0,2.115.594A4.687,4.687,0,0,1,1.594,4.236a13.3,13.3,0,0,0,9.65,4.9,5.283,5.283,0,0,1-.116-1.072,4.685,4.685,0,0,1,8.1-3.2,9.214,9.214,0,0,0,2.97-1.13A4.667,4.667,0,0,1,20.14,6.308a9.382,9.382,0,0,0,2.7-.724A10.06,10.06,0,0,1,20.488,8Z" transform="translate(0 -3.381)" fill="#293341"/>
</svg>
