<svg xmlns="http://www.w3.org/2000/svg" xmlns:xlink="http://www.w3.org/1999/xlink" width="28.508" height="14.254" viewBox="0 0 28.508 14.254">
  <defs>
    <clipPath id="clip-path">
      <path id="path26" d="M0-76.2H28.508v14.254H0Z" transform="translate(0 76.2)"/>
    </clipPath>
  </defs>
  <g id="layer1" transform="translate(10.926 15.042)">
    <g id="g22" transform="translate(-10.926 -15.042)">
      <g id="g24" clip-path="url(#clip-path)">
        <g id="g30" transform="translate(2.046 10.224)">
          <path id="path32" d="M-.854,0h.183l-.17.709A.3.3,0,0,0-.826.947a.215.215,0,0,0,.194.079A.337.337,0,0,0-.4.947.443.443,0,0,0-.274.709L-.1,0H.081L-.093.727a.628.628,0,0,1-.2.355.583.583,0,0,1-.38.118A.381.381,0,0,1-1,1.082.421.421,0,0,1-1.028.727Z" transform="translate(1.05)" fill="#696a6a"/>
        </g>
        <g id="g34" transform="translate(3.153 10.178)">
          <path id="path36" d="M0-5.278.291-6.493l.552.714c.015.02.03.042.044.065s.03.049.045.077l.194-.81H1.3L1.007-5.233.443-5.96A.651.651,0,0,1,.4-6.022a.67.67,0,0,1-.036-.069L.17-5.278Z" transform="translate(0 6.493)" fill="#696a6a"/>
        </g>
        <g id="g38" transform="translate(4.435 10.224)">
          <path id="path40" d="M0-5.077.28-6.246H.465L.185-5.077Z" transform="translate(0 6.246)" fill="#696a6a"/>
        </g>
        <g id="g42" transform="translate(4.887 10.224)">
          <path id="path44" d="M0-5.077.28-6.246H.915l-.039.161H.426l-.07.291h.45l-.04.167H.316l-.131.549Z" transform="translate(0 6.246)" fill="#696a6a"/>
        </g>
        <g id="g46" transform="translate(5.726 10.224)">
          <path id="path48" d="M0-5.077.28-6.246H.465L.185-5.077Z" transform="translate(0 6.246)" fill="#696a6a"/>
        </g>
        <g id="g50" transform="translate(6.177 10.224)">
          <path id="path52" d="M0-5.077.28-6.246H.915l-.039.161H.426l-.07.293h.45l-.04.167H.316l-.09.377h.45l-.041.17Z" transform="translate(0 6.246)" fill="#696a6a"/>
        </g>
        <g id="g54" transform="translate(7.025 10.224)">
          <path id="path56" d="M-.983-4.332h.156a.841.841,0,0,0,.2-.018A.37.37,0,0,0-.5-4.408a.494.494,0,0,0,.131-.141.658.658,0,0,0,.079-.2.529.529,0,0,0,.015-.2.261.261,0,0,0-.063-.141.212.212,0,0,0-.1-.059.86.86,0,0,0-.206-.017H-.785Zm-.226.172.28-1.168h.25A1.5,1.5,0,0,1-.343-5.3a.344.344,0,0,1,.154.084.356.356,0,0,1,.1.2A.678.678,0,0,1-.1-4.743a.851.851,0,0,1-.117.276.7.7,0,0,1-.2.2.606.606,0,0,1-.19.084,1.358,1.358,0,0,1-.3.025h-.3Z" transform="translate(1.209 5.328)" fill="#696a6a"/>
        </g>
        <g id="g58" transform="translate(8.685 10.224)">
          <path id="path60" d="M-1.512-2.123h.048a.466.466,0,0,0,.214-.034.179.179,0,0,0,.08-.121q.022-.093-.023-.132a.326.326,0,0,0-.193-.038h-.048Zm-.049.155-.126.524H-1.86l.28-1.168h.28a.819.819,0,0,1,.18.014.213.213,0,0,1,.091.046.2.2,0,0,1,.058.11.354.354,0,0,1-.006.152.471.471,0,0,1-.067.153.374.374,0,0,1-.11.11.354.354,0,0,1-.113.045.94.94,0,0,1-.186.014h-.107Z" transform="translate(1.86 2.611)" fill="#696a6a"/>
        </g>
        <g id="g62" transform="translate(9.291 10.178)">
          <path id="path64" d="M-2.195-3.284h.317l-.053-.267c0-.017,0-.036-.007-.059s0-.047,0-.074q-.018.038-.037.071t-.036.061Zm.4.459-.057-.3H-2.3l-.2.3H-2.7l.842-1.215.26,1.215Z" transform="translate(2.699 4.04)" fill="#696a6a"/>
        </g>
        <g id="g66" transform="translate(10.555 10.224)">
          <path id="path68" d="M-.451-5.077l.128-.535-.232-.634h.194l.144.4c0,.01.007.023.012.04s.009.034.013.053c.012-.019.024-.036.036-.053s.024-.032.036-.045l.339-.392H.4l-.544.634-.128.535Z" transform="translate(0.555 6.246)" fill="#696a6a"/>
        </g>
        <g id="g70" transform="translate(11.248 10.175)">
          <path id="path72" d="M-5.113-2.785q0-.014.008-.075t.009-.085a.74.74,0,0,1-.039.08.941.941,0,0,1-.052.081l-.447.622L-5.779-2.8a.743.743,0,0,1-.014-.076c0-.024-.005-.049-.006-.073-.006.025-.014.05-.024.077s-.022.055-.035.084l-.26.575h-.17l.561-1.218.16.737c0,.012.006.031.01.058s.009.061.015.1q.028-.05.082-.128l.022-.032.5-.737-.016,1.218h-.172Z" transform="translate(6.29 3.426)" fill="#696a6a"/>
        </g>
        <g id="g74" transform="translate(12.732 10.224)">
          <path id="path76" d="M0-5.077.28-6.246H.915l-.039.161H.426l-.07.293h.45l-.04.167H.316l-.09.377h.45l-.041.17Z" transform="translate(0 6.246)" fill="#696a6a"/>
        </g>
        <g id="g78" transform="translate(13.58 10.178)">
          <path id="path80" d="M0-5.278.291-6.493l.552.714c.015.02.03.042.044.065s.03.049.045.077l.194-.81H1.3L1.007-5.233.443-5.96A.651.651,0,0,1,.4-6.022a.67.67,0,0,1-.036-.069L.17-5.278Z" transform="translate(0 6.493)" fill="#696a6a"/>
        </g>
        <g id="g82" transform="translate(14.981 10.224)">
          <path id="path84" d="M-2.12-.7-2.361.307h-.185L-2.3-.7h-.3l.039-.161h.789L-1.819-.7Z" transform="translate(2.607 0.861)" fill="#696a6a"/>
        </g>
        <g id="g86" transform="translate(15.661 10.198)">
          <path id="path88" d="M0-4.176l.165-.07a.158.158,0,0,0,.049.119.194.194,0,0,0,.133.041.223.223,0,0,0,.142-.047.22.22,0,0,0,.079-.126q.025-.1-.123-.184L.413-4.46A.571.571,0,0,1,.2-4.63a.246.246,0,0,1-.018-.186.4.4,0,0,1,.15-.231A.43.43,0,0,1,.6-5.136a.347.347,0,0,1,.2.05.19.19,0,0,1,.083.143l-.163.077a.175.175,0,0,0-.056-.081A.144.144,0,0,0,.58-4.973a.209.209,0,0,0-.128.04.183.183,0,0,0-.07.107q-.025.105.146.2l.021.011a.487.487,0,0,1,.195.156.25.25,0,0,1,.017.19A.458.458,0,0,1,.6-4.008a.472.472,0,0,1-.3.1.322.322,0,0,1-.222-.069A.245.245,0,0,1,0-4.176" transform="translate(0 5.136)" fill="#696a6a"/>
        </g>
        <g id="g90" transform="translate(17.029 10.224)">
          <path id="path92" d="M0-5.077.28-6.246H.465L.185-5.077Z" transform="translate(0 6.246)" fill="#696a6a"/>
        </g>
        <g id="g94" transform="translate(17.48 10.178)">
          <path id="path96" d="M0-5.278.291-6.493l.552.714c.015.02.03.042.044.065s.03.049.045.077l.194-.81H1.3L1.007-5.233.443-5.96A.651.651,0,0,1,.4-6.022a.683.683,0,0,1-.036-.069L.17-5.278Z" transform="translate(0 6.493)" fill="#696a6a"/>
        </g>
        <g id="g98" transform="translate(18.881 10.224)">
          <path id="path100" d="M-2.12-.7-2.361.307h-.185L-2.3-.7h-.3l.039-.161h.789L-1.819-.7Z" transform="translate(2.607 0.861)" fill="#696a6a"/>
        </g>
        <g id="g102" transform="translate(19.57 10.224)">
          <path id="path104" d="M0-5.077.28-6.246H.915l-.039.161H.426l-.07.293h.45l-.04.167H.316l-.09.377h.45l-.041.17Z" transform="translate(0 6.246)" fill="#696a6a"/>
        </g>
        <g id="g106" transform="translate(20.418 10.224)">
          <path id="path108" d="M-1.5-2.164h.034a.417.417,0,0,0,.2-.035.189.189,0,0,0,.078-.125q.023-.1-.019-.136a.284.284,0,0,0-.182-.04h-.034Zm-.047.148-.125.523h-.173l.28-1.168h.258a.736.736,0,0,1,.173.015.205.205,0,0,1,.095.05.2.2,0,0,1,.056.109.351.351,0,0,1-.006.147.428.428,0,0,1-.119.22.376.376,0,0,1-.218.1l.265.532h-.209l-.254-.523Z" transform="translate(1.848 2.662)" fill="#696a6a"/>
        </g>
        <g id="g110" transform="translate(21.31 10.224)">
          <path id="path112" d="M0-5.077.28-6.246H.915l-.039.161H.426l-.07.291h.45l-.04.167H.317l-.131.549Z" transform="translate(0 6.246)" fill="#696a6a"/>
        </g>
        <g id="g114" transform="translate(21.935 10.178)">
          <path id="path116" d="M-2.195-3.284h.317l-.053-.267q0-.025-.007-.059c0-.022,0-.047,0-.074q-.019.038-.037.071t-.036.061Zm.4.459-.057-.3H-2.3l-.2.3H-2.7l.842-1.215.26,1.215Z" transform="translate(2.699 4.04)" fill="#696a6a"/>
        </g>
        <g id="g118" transform="translate(23.186 10.196)">
          <path id="path120" d="M-4.588-1.356a.408.408,0,0,0-.141-.1.439.439,0,0,0-.176-.034.5.5,0,0,0-.333.123.58.58,0,0,0-.193.318.376.376,0,0,0,.039.312.292.292,0,0,0,.258.123.581.581,0,0,0,.2-.037.826.826,0,0,0,.2-.111l-.051.215a.711.711,0,0,1-.182.082.71.71,0,0,1-.2.027.571.571,0,0,1-.231-.044.4.4,0,0,1-.164-.129.429.429,0,0,1-.081-.2.626.626,0,0,1,.013-.242.791.791,0,0,1,.1-.241.82.82,0,0,1,.177-.2.787.787,0,0,1,.226-.131.714.714,0,0,1,.248-.044.543.543,0,0,1,.184.03.489.489,0,0,1,.155.091Z" transform="translate(5.644 1.668)" fill="#696a6a"/>
        </g>
        <g id="g122" transform="translate(24.26 10.224)">
          <path id="path124" d="M0-5.077.28-6.246H.915l-.039.161H.426l-.07.293h.45l-.04.167H.316l-.09.377h.45l-.041.17Z" transform="translate(0 6.246)" fill="#696a6a"/>
        </g>
        <g id="g126" transform="translate(19.611 2.815)">
          <path id="path128" d="M-5.53-27.777H-6.8l1.77-6.392H-3.76Z" transform="translate(6.803 34.169)" fill="#66686c"/>
        </g>
        <g id="g130" transform="translate(11.044 2.834)">
          <path id="path132" d="M-39.891-.8A.472.472,0,0,0-40.3-.978h-7L-47.644.274h6.366l-.37,1.338h-5.093v0h-1.273L-49.07,5.421H-47.8l.709-2.56h5.724a.813.813,0,0,0,.505-.183.849.849,0,0,0,.312-.452l.709-2.56A.52.52,0,0,0-39.891-.8" transform="translate(49.07 0.978)" fill="#66686c"/>
        </g>
        <g id="g134" transform="translate(2.691 2.833)">
          <path id="path136" d="M-33.079-25.962a.585.585,0,0,1-.563.428h-6.566a.459.459,0,0,1-.4-.183.508.508,0,0,1-.056-.453l1.6-5.767h1.274l-1.431,5.151h5.095l1.431-5.151h1.273Z" transform="translate(40.691 31.936)" fill="#66686c"/>
        </g>
        <g id="g138" transform="translate(23.076 2.826)">
          <path id="path140" d="M-7.717,0l1.611,3.2-3.387,3.2Z" transform="translate(9.493)" fill="#27803b"/>
        </g>
        <g id="g142" transform="translate(21.944 2.826)">
          <path id="path144" d="M-7.728,0l1.61,3.2-3.388,3.2Z" transform="translate(9.506)" fill="#e9661c"/>
        </g>
      </g>
    </g>
  </g>
</svg>
