<svg id="user" xmlns="http://www.w3.org/2000/svg" width="53.362" height="59.614" viewBox="0 0 53.362 59.614">
  <g id="Group_58377" data-name="Group 58377" transform="translate(0)">
    <g id="Group_58376" data-name="Group 58376" transform="translate(0)">
      <path id="Path_9305" data-name="Path 9305" d="M126.27,30.956a15.478,15.478,0,1,0-15.478-15.478A15.519,15.519,0,0,0,126.27,30.956Z" transform="translate(-99.585)" fill="#e4e9ee"/>
      <path id="Path_9306" data-name="Path 9306" d="M77.413,259.1a14.43,14.43,0,0,0-1.555-2.839,19.239,19.239,0,0,0-13.315-8.381,2.849,2.849,0,0,0-1.96.473,16.5,16.5,0,0,1-19.466,0,2.536,2.536,0,0,0-1.96-.473,19.1,19.1,0,0,0-13.315,8.381,16.636,16.636,0,0,0-1.555,2.839,1.437,1.437,0,0,0,.068,1.284,26.957,26.957,0,0,0,1.825,2.7,25.685,25.685,0,0,0,3.109,3.515,40.519,40.519,0,0,0,3.109,2.7,30.823,30.823,0,0,0,36.769,0,29.723,29.723,0,0,0,3.109-2.7,31.208,31.208,0,0,0,3.109-3.515,23.7,23.7,0,0,0,1.825-2.7A1.153,1.153,0,0,0,77.413,259.1Z" transform="translate(-24.165 -215.777)" fill="#e4e9ee"/>
    </g>
  </g>
</svg>
