<svg xmlns="http://www.w3.org/2000/svg" width="18.556" height="18.556" viewBox="0 0 18.556 18.556">
  <g id="Layer_2" data-name="Layer 2" transform="translate(-0.989 -0.999)">
    <path id="Path_8290" data-name="Path 8290" d="M13.711,12.422a3.711,3.711,0,1,1,3.711-3.711,3.711,3.711,0,0,1-3.711,3.711Zm0-6.185a2.474,2.474,0,1,0,2.474,2.474A2.474,2.474,0,0,0,13.711,6.237Z" transform="translate(-3.438 -1.526)" fill="#a9bacb"/>
    <path id="Path_8291" data-name="Path 8291" d="M11.38,26.331a9.278,9.278,0,0,1-7.169-3.4l-.322-.4.322-.39a9.278,9.278,0,0,1,14.337,0l.322.39-.322.4A9.278,9.278,0,0,1,11.38,26.331Zm-5.87-3.785a8.041,8.041,0,0,0,11.752,0,8.041,8.041,0,0,0-11.752,0Z" transform="translate(-1.107 -6.776)" fill="#a9bacb"/>
    <path id="Path_8292" data-name="Path 8292" d="M10.273,19.555a9.278,9.278,0,1,1,7.169-3.4,9.278,9.278,0,0,1-7.169,3.4Zm0-17.318a8.041,8.041,0,1,0,8.041,8.041,8.041,8.041,0,0,0-8.041-8.041Z" transform="translate(0 0)" fill="#a9bacb"/>
    <path id="Path_8293" data-name="Path 8293" d="M5.18,22.876s6.228,6.958,12.568.693l.816-.693S13.27,17.383,7.9,20.68Z" transform="translate(-1.599 -7.106)" fill="#a9bacb"/>
    <circle id="Ellipse_52" data-name="Ellipse 52" cx="3" cy="3" r="3" transform="translate(6.989 3.999)" fill="#a9bacb"/>
  </g>
</svg>