<svg xmlns="http://www.w3.org/2000/svg" width="20.383" height="17.175" viewBox="0 0 20.383 17.175">
  <g id="userOfferIcon" transform="translate(-2 -3)">
    <path id="Path_5013" data-name="Path 5013" d="M5.179,11.56A3.1,3.1,0,0,1,2.52,14.63v2.69h18.61V14.63a3.1,3.1,0,0,1,0-6.141V5.8H2.52v2.69A3.1,3.1,0,0,1,5.179,11.56Z" transform="translate(0.366 1.968)" fill="#52a02b"/>
    <path id="Path_5014" data-name="Path 5014" d="M2,5.722a.443.443,0,0,1,.443-.443h19.5a.443.443,0,0,1,.443.443V9.267a.443.443,0,0,1-.443.443,2.216,2.216,0,0,0,0,4.431.443.443,0,0,1,.443.443v3.545a.443.443,0,0,1-.443.443H2.443A.443.443,0,0,1,2,18.129V14.584a.443.443,0,0,1,.443-.443,2.216,2.216,0,0,0,0-4.431A.443.443,0,0,1,2,9.267Z" transform="translate(0 1.603)" fill="#f6cc1e"/>
    <path id="Path_5015" data-name="Path 5015" d="M6.138,6.073a.443.443,0,0,1,.313-.543l9.387-2.515a.443.443,0,0,1,.542.314L16.908,5.3a.443.443,0,0,1-.313.543c-.236.063-9.915.544-9.915.544A.443.443,0,0,1,6.138,6.073Z" transform="translate(2.899 0)" fill="#e6bb1b"/>
    <path id="Path_5016" data-name="Path 5016" d="M9.8,6.763a.443.443,0,0,1,.886,0V8.535a.443.443,0,0,1-.886,0Z" transform="translate(5.488 2.334)" fill="#fff"/>
    <path id="Path_5017" data-name="Path 5017" d="M9.8,8.844a.443.443,0,0,1,.886,0v1.772a.443.443,0,0,1-.886,0Z" transform="translate(5.488 3.798)" fill="#fff"/>
    <path id="Path_5018" data-name="Path 5018" d="M9.8,10.925a.443.443,0,1,1,.886,0V12.7a.443.443,0,1,1-.886,0Z" transform="translate(5.488 5.261)" fill="#fff"/>
  </g>
</svg>
