<svg xmlns="http://www.w3.org/2000/svg" width="14.933" height="14.926" viewBox="0 0 14.933 14.926">
  <path id="Path_9245" data-name="Path 9245" d="M14.058,7.27V5.509a1.606,1.606,0,0,0-1.546-1.6V2.826a1.022,1.022,0,0,0-1.021-1.021H8.681L8.318.8A1.021,1.021,0,0,0,7.009.183l-5.1,1.856A1.021,1.021,0,0,0,1.3,3.35l.2.559A1.606,1.606,0,0,0,0,5.509v7.933a1.606,1.606,0,0,0,1.6,1.6h10.85a1.606,1.606,0,0,0,1.6-1.6V11.624a1.022,1.022,0,0,0,.875-1.01V8.28A1.022,1.022,0,0,0,14.058,7.27Zm0,3.344a.146.146,0,0,1-.146.146H11.579a1.312,1.312,0,0,1,0-2.625h2.333a.146.146,0,0,1,.146.146ZM2.121,3.049a.146.146,0,0,1,.087-.187l5.1-1.856a.146.146,0,0,1,.187.088l.256.713h-.2A1.022,1.022,0,0,0,6.533,2.826V3.905h-4.1Zm9.517-.222V3.905H7.408V2.826a.146.146,0,0,1,.146-.146h3.937A.146.146,0,0,1,11.637,2.826Zm.817,11.346H1.6a.73.73,0,0,1-.729-.729V5.509A.73.73,0,0,1,1.6,4.78h10.85a.73.73,0,0,1,.729.729v1.75h-1.6a2.187,2.187,0,0,0,0,4.375h1.6v1.808A.73.73,0,0,1,12.454,14.172Z" transform="translate(0 -0.121)" fill="#293341"/>
</svg>
