<svg xmlns="http://www.w3.org/2000/svg" width="15.278" height="14.103" viewBox="0 0 15.278 14.103">
  <path id="Icon_ionic-md-heart-empty" data-name="Icon ionic-md-heart-empty" d="M14.452,4.5a4.519,4.519,0,0,0-3.438,1.612A4.519,4.519,0,0,0,7.577,4.5a4.154,4.154,0,0,0-4.2,4.227c0,2.92,2.6,5.263,6.53,8.877l1.109,1,1.109-1c3.933-3.614,6.53-5.957,6.53-8.877A4.154,4.154,0,0,0,14.452,4.5ZM11.484,16.594l-.154.143-.316.286-.316-.286-.154-.143a46.682,46.682,0,0,1-4.506-4.481A5.389,5.389,0,0,1,4.554,8.727a3.055,3.055,0,0,1,.87-2.178,2.989,2.989,0,0,1,2.152-.874,3.368,3.368,0,0,1,2.538,1.194l.9,1.069.9-1.069a3.356,3.356,0,0,1,2.538-1.194,3,3,0,0,1,2.156.874,3.061,3.061,0,0,1,.87,2.178,5.417,5.417,0,0,1-1.484,3.386A46.777,46.777,0,0,1,11.484,16.594Z" transform="translate(-3.375 -4.5)" fill="#66829f"/>
</svg>
