<svg xmlns="http://www.w3.org/2000/svg" width="14.088" height="13.004" viewBox="0 0 14.088 13.004">
  <path id="Icon_ionic-md-heart-empty" data-name="Icon ionic-md-heart-empty" d="M13.589,4.5a4.167,4.167,0,0,0-3.17,1.487A4.167,4.167,0,0,0,7.249,4.5,3.83,3.83,0,0,0,3.375,8.4c0,2.692,2.394,4.853,6.021,8.185l1.023.921,1.023-.921c3.627-3.332,6.021-5.493,6.021-8.185A3.83,3.83,0,0,0,13.589,4.5ZM10.853,15.652l-.142.132-.291.264-.291-.264-.142-.132A43.045,43.045,0,0,1,5.83,11.52,4.969,4.969,0,0,1,4.462,8.4a2.817,2.817,0,0,1,.8-2.008,2.756,2.756,0,0,1,1.985-.806,3.106,3.106,0,0,1,2.34,1.1l.83.985.83-.985a3.094,3.094,0,0,1,2.34-1.1,2.77,2.77,0,0,1,1.988.806,2.823,2.823,0,0,1,.8,2.008,5,5,0,0,1-1.368,3.122A43.132,43.132,0,0,1,10.853,15.652Z" transform="translate(-3.375 -4.5)" fill="#293341"/>
</svg>
