<svg id="Layer_1" data-name="Layer 1" xmlns="http://www.w3.org/2000/svg" viewBox="0 0 36.03 22"><defs><style>.cls-1{fill:#4d4d4d;}.cls-2{fill:#fff;}.cls-3{fill:#ff6f00;}</style></defs><rect class="cls-1" width="36.03" height="22" rx="1.6"/><path class="cls-2" d="M7.61,9.23a2.27,2.27,0,0,0-2-1.14H4v4.7H5.88a2.35,2.35,0,0,0,2.06-2.61A2.3,2.3,0,0,0,7.61,9.23ZM6.45,11.61a1.59,1.59,0,0,1-1,.36H5V8.87a2,2,0,0,1,1.57.45,1.62,1.62,0,0,1-.08,2.29Z"/><path class="cls-2" d="M32,10.8h.11a1.49,1.49,0,0,0,.58-.31,1.32,1.32,0,0,0,.38-.94,1.26,1.26,0,0,0-.88-1.33,2.07,2.07,0,0,0-.55-.11h-1.6V12.8h1V10.9c.1,0,.13,0,.17.07l1.16,1.73a.13.13,0,0,0,.15.08h1Zm-.2-.69a1.6,1.6,0,0,1-.84.13V8.82a1.67,1.67,0,0,1,.83.1.6.6,0,0,1,.33.58.64.64,0,0,1-.28.61Z"/><path class="cls-3" d="M35.7,12.94l.23-.15h0l.1-.07V20a2,2,0,0,1-2,2H11c1.32-.27,2.64-.54,3.95-.85,2.55-.6,5.06-1.33,7.53-2.17a71,71,0,0,0,9.41-3.91A41.29,41.29,0,0,0,35.7,12.94Z"/><path class="cls-2" d="M26.91,8.07H29.5v.8H27.84v1h1.6v.8H27.83V12h1.68v.79h-2.6Z"/><path class="cls-2" d="M22.92,8.07a.38.38,0,0,1,.08.09c.33.82.65,1.63,1,2.44l.25.62.05-.12c.4-1,.79-2,1.18-2.94a.12.12,0,0,1,.14-.1h.9l-.05.11c-.64,1.54-1.29,3.09-1.94,4.63a.14.14,0,0,1-.15.09H24a.26.26,0,0,1-.11-.07L22,8.12h0Z"/><path class="cls-3" d="M19.64,8a2.44,2.44,0,1,1-2.5,2.41A2.44,2.44,0,0,1,19.64,8Z"/><path class="cls-2" d="M15.12,8a2.31,2.31,0,0,1,1.59.2.11.11,0,0,1,.07.08v1c-.15-.11-.28-.22-.42-.31a1.48,1.48,0,0,0-1.75.18,1.7,1.7,0,0,0-.07,2.4l.14.13a1.52,1.52,0,0,0,1.94,0l.16-.14v1a.13.13,0,0,1-.08.12,2.5,2.5,0,0,1-3.17-.87,2.47,2.47,0,0,1,.74-3.4A2.61,2.61,0,0,1,15.12,8Z"/><path class="cls-2" d="M11.9,11.27a.59.59,0,0,0-.29-.38c-.18-.09-.36-.15-.54-.23l-.57-.24A1.14,1.14,0,0,1,9.9,9a1.34,1.34,0,0,1,1.24-1,2,2,0,0,1,1.52.48h0c-.16.21-.31.42-.47.62a1.11,1.11,0,0,0-.62-.37.77.77,0,0,0-.68.2.41.41,0,0,0,0,.58.39.39,0,0,0,.1.08c.16.1.34.16.52.25s.54.23.79.37a1.11,1.11,0,0,1,.56,1,1.53,1.53,0,0,1-.61,1.37A1.85,1.85,0,0,1,9.62,12l.55-.59a3.8,3.8,0,0,0,.33.37,1,1,0,0,0,.92.22A.65.65,0,0,0,11.9,11.27Z"/><path class="cls-2" d="M8.35,8.08h.9v4.69h-.9Z"/></svg>