<svg id="Layer_1" data-name="Layer 1" xmlns="http://www.w3.org/2000/svg" viewBox="0 0 36.03 22"><defs><style>.cls-1{fill:#36495d;}.cls-2{fill:#f16522;}.cls-3{fill:#e41b24;}.cls-4{fill:#f89e1c;}</style></defs><rect class="cls-1" width="36.03" height="22" rx="1.6"/><rect class="cls-2" x="15.39" y="6.28" width="5.25" height="9.43"/><path class="cls-3" d="M15.72,11A6,6,0,0,1,18,6.28a6,6,0,1,0,0,9.44A6,6,0,0,1,15.72,11"/><path class="cls-4" d="M27.72,11A6,6,0,0,1,18,15.72a6,6,0,0,0,0-9.44A6,6,0,0,1,27.72,11m-.57,3.72v-.2h.08v0H27v0h.07v.2Zm.38,0v-.24h-.06l-.07.16-.07-.16h-.06v.24h0v-.18l.07.15h0l.07-.15v.18Z"/></svg>