<svg id="Layer_1" data-name="Layer 1" xmlns="http://www.w3.org/2000/svg" viewBox="0 0 36.03 22"><defs><style>.cls-1{fill:#0066b2;}.cls-2{fill:#fff;}.cls-3{fill:#f9a533;}</style></defs><rect class="cls-1" width="36.03" height="22" rx="1.6"/><polygon class="cls-2" points="16.69 14.13 15.06 14.13 16.08 7.88 17.7 7.88 16.69 14.13"/><path class="cls-2" d="M13.69,7.88l-1.55,4.3L12,11.25h0l-.55-2.81a.7.7,0,0,0-.77-.56H8.07L8,8a6.29,6.29,0,0,1,1.71.72l1.41,5.43h1.69l2.59-6.25Z"/><path class="cls-2" d="M26.49,14.13H28L26.68,7.88H25.37a.75.75,0,0,0-.75.46L22.2,14.13h1.69l.34-.93H26.3ZM24.7,11.92l.86-2.34L26,11.92Z"/><path class="cls-2" d="M22.32,9.38,22.56,8a4.78,4.78,0,0,0-1.47-.27c-.81,0-2.72.35-2.72,2.06s2.25,1.64,2.25,2.49-2,.69-2.69.16l-.24,1.4a4.62,4.62,0,0,0,1.84.35c1.11,0,2.78-.57,2.78-2.13S20,10.32,20,9.61,21.63,9,22.32,9.38Z"/><path class="cls-3" d="M12,11.25l-.55-2.81a.7.7,0,0,0-.77-.56H8.07L8,8A6.33,6.33,0,0,1,10.46,9.2,4.86,4.86,0,0,1,12,11.25Z"/></svg>