<svg xmlns="http://www.w3.org/2000/svg" width="18.81" height="18.81" viewBox="0 0 18.81 18.81">
  <path id="Search" d="M17.7,18.677l-.078-.066-2.941-2.868A9.124,9.124,0,0,1,9.039,17.68,8.952,8.952,0,0,1,0,8.84,8.952,8.952,0,0,1,9.039,0a8.952,8.952,0,0,1,9.04,8.84A8.7,8.7,0,0,1,15.7,14.812l2.907,2.835a.671.671,0,0,1,0,.963.709.709,0,0,1-.907.067ZM1.392,8.84a7.573,7.573,0,0,0,7.647,7.478A7.573,7.573,0,0,0,16.687,8.84,7.573,7.573,0,0,0,9.039,1.362,7.573,7.573,0,0,0,1.392,8.84Z" fill="#200e32"/>
</svg>
