<svg xmlns="http://www.w3.org/2000/svg" width="22.088" height="18.176" viewBox="0 0 22.088 18.176">
  <path id="Path_7" data-name="Path 7" d="M426.44,159.479c2.22-.17,4.416-.336,6.3-2.017a4.9,4.9,0,0,1-4.207-3.237h1.85l.053-.148a4.757,4.757,0,0,1-3.378-4.376l1.951.519.121-.157c-2.027-1.666-2.67-3.641-1.436-6.121,2.587,2.753,5.5,4.752,9.507,4.777a10.818,10.818,0,0,1,.013-1.721,4.71,4.71,0,0,1,7.68-2.74.862.862,0,0,0,1.051.159c.679-.316,1.37-.6,2.127-.935a6.792,6.792,0,0,1-1.625,2.46l2.08-.541a4.375,4.375,0,0,1-1.708,1.888.679.679,0,0,0-.388.705,12.876,12.876,0,0,1-13.361,13.326A13.6,13.6,0,0,1,426.44,159.479Z" transform="translate(-426.44 -143.147)" fill="#fff"/>
</svg>
