<svg xmlns="http://www.w3.org/2000/svg" width="21.066" height="18.05" viewBox="0 0 21.066 18.05">
  <path id="Union_20" data-name="Union 20" d="M.79,12.022a6.074,6.074,0,0,1,0-6C3.227,2.2,6.778,0,10.533,0s7.306,2.2,9.743,6.027a6.074,6.074,0,0,1,0,6c-2.436,3.83-5.987,6.027-9.742,6.027S3.227,15.854.79,12.022ZM2.056,6.833a4.578,4.578,0,0,0,0,4.384C4.212,14.606,7.3,16.55,10.533,16.55s6.322-1.944,8.477-5.333a4.575,4.575,0,0,0,0-4.384C16.854,3.443,13.765,1.5,10.533,1.5S4.212,3.443,2.056,6.833ZM6.2,9.03a4.33,4.33,0,1,1,4.33,4.33A4.335,4.335,0,0,1,6.2,9.03Zm1.5,0a2.83,2.83,0,1,0,2.83-2.83A2.834,2.834,0,0,0,7.7,9.03Z" fill="#292d32"/>
</svg>
